<svg width="177" height="41" viewBox="0 0 177 41" fill="none" xmlns="http://www.w3.org/2000/svg">
<path d="M50.5845 28.5693V12.5693H53.6013V25.8219H59.9081L59.6926 28.5693H50.5845Z" fill="white"/>
<path d="M78.7929 28.5693H75.5605L74.0252 24.3673H67.9646L66.4293 28.5693H63.3047L69.3114 12.5693H72.813L78.7929 28.5693ZM73.2171 21.9431L71.601 17.6064C71.4753 17.2652 71.3676 16.9419 71.2777 16.6367C71.2059 16.3314 71.134 16.0351 71.0622 15.7478H70.9275C70.8557 16.0351 70.775 16.3314 70.6851 16.6367C70.6134 16.9419 70.5146 17.2652 70.3888 17.6064L68.7188 21.9431H73.2171Z" fill="white"/>
<path d="M93.5773 12.5693L87.7321 28.5693H84.2036L78.3584 12.5693H81.6177L85.4426 23.3168C85.5504 23.658 85.6491 23.9992 85.7388 24.3403C85.8287 24.6816 85.9094 24.9958 85.9813 25.2831H86.0891C86.1609 24.9958 86.2417 24.6816 86.3314 24.3403C86.4213 23.9992 86.52 23.658 86.6278 23.3168L90.4796 12.5693H93.5773Z" fill="white"/>
<path d="M107.103 12.5693L106.861 15.2629H99.7229V19.1956H105.649V21.8353H99.7229V25.8757H107.238V28.5693H96.7061V12.5693H107.103Z" fill="white"/>
<path d="M125.483 12.5693V28.5693H122.843L116.082 19.1148C115.848 18.8096 115.633 18.4953 115.435 18.1721C115.238 17.8488 115.058 17.5435 114.897 17.2562H114.789V28.5693H111.88V12.5693H114.843L121.281 21.566C121.514 21.8892 121.729 22.2124 121.927 22.5357C122.143 22.8409 122.322 23.1372 122.465 23.4245H122.573V12.5693H125.483Z" fill="white"/>
<path d="M144.742 20.5693C144.742 22.1496 144.384 23.5412 143.665 24.7444C142.947 25.9475 141.923 26.8903 140.595 27.5726C139.266 28.2371 137.685 28.5693 135.854 28.5693H130.44V12.5693H135.854C137.685 12.5693 139.266 12.9105 140.595 13.5929C141.923 14.2573 142.947 15.1911 143.665 16.3943C144.384 17.5794 144.742 18.9712 144.742 20.5693ZM141.592 20.5693C141.592 19.438 141.358 18.4683 140.891 17.6602C140.424 16.8522 139.759 16.2326 138.898 15.8017C138.036 15.3707 137.021 15.1552 135.854 15.1552H133.457V25.9835H135.854C137.039 25.9835 138.054 25.768 138.898 25.337C139.759 24.906 140.424 24.2865 140.891 23.4784C141.358 22.6524 141.592 21.6827 141.592 20.5693Z" fill="white"/>
<path d="M159.505 12.5693L159.262 15.2629H152.124V19.1956H158.05V21.8353H152.124V25.8757H159.639V28.5693H149.107V12.5693H159.505Z" fill="white"/>
<path d="M175.785 17.8218C175.785 18.9352 175.471 19.8779 174.842 20.6502C174.232 21.4044 173.459 21.9251 172.525 22.2124L176.835 28.5693H173.307L169.536 22.9397H167.003V28.5693H163.987V12.5693H169.321C170.667 12.5693 171.825 12.7759 172.795 13.1889C173.765 13.5839 174.501 14.1765 175.004 14.9666C175.524 15.7388 175.785 16.6906 175.785 17.8218ZM172.714 17.8218C172.714 17.1754 172.562 16.6546 172.256 16.2596C171.968 15.8466 171.565 15.5503 171.044 15.3707C170.524 15.1732 169.913 15.0744 169.212 15.0744H167.003V20.5693H169.212C169.913 20.5693 170.524 20.4705 171.044 20.2731C171.565 20.0755 171.968 19.7793 172.256 19.3841C172.562 18.9712 172.714 18.4504 172.714 17.8218Z" fill="white"/>
<circle cx="20.5845" cy="20.5693" r="20" fill="#7E54E2"/>
<path d="M19.6127 30.2935C17.5384 29.2741 16.1792 26.2598 16.0663 23.2906C15.9533 20.3214 16.652 18.3374 18.8283 16.8666C19.4814 16.4253 19.8703 15.5213 21.1234 15.8765C22.3764 16.2317 23.8978 17.795 24.5455 20.3736C25.1932 22.9523 24.6673 25.48 23.9604 27.127C23.2535 28.774 21.687 31.313 19.6127 30.2935Z" fill="white"/>
<path d="M15.5151 26.3622C14.8969 24.3947 14.8726 22.0236 15.1787 21.0376C15.2221 20.9233 15.1787 20.8126 15.0488 20.7897C14.7884 20.7191 14.3662 20.6278 13.6719 20.5542C12.626 20.4434 10.2526 20.1271 9.12741 21.451C8.00223 22.7748 8.39311 23.9757 10.1672 27.2751C11.9413 30.5746 13.2209 31.5246 14.6435 31.5684C15.5965 31.5978 16.6304 30.9061 17.2091 30.4464C17.4846 30.2276 17.5251 29.8384 17.3313 29.5448C16.7843 28.7158 15.7424 27.0855 15.5151 26.3622Z" fill="white"/>
<path d="M8.30036 17.3602C8.41655 18.6584 8.86898 19.7145 9.03245 20.061C9.06361 20.127 9.14449 20.1507 9.2094 20.1173C9.52399 19.9554 10.4553 19.5407 11.8292 19.4876C13.5416 19.4214 14.5703 19.9795 15.248 19.9246C15.4572 19.9076 15.5448 19.2568 15.4474 18.9212C15.3499 18.5855 14.2027 17.0498 13.1455 16.098C11.9315 15.0049 10.6699 13.7546 9.59292 13.8894C8.51589 14.0242 8.15777 15.7671 8.30036 17.3602Z" fill="white"/>
<path d="M20.7108 14.7752C19.8261 14.8182 19.2628 15.0511 18.8929 15.4202C18.8167 15.4963 18.6583 15.4281 18.6745 15.3216C18.9079 13.7914 19.272 11.8883 20.4361 11.3682C22.0543 10.6452 22.7419 10.9344 24.3714 10.3164C25.9477 9.71867 26.6082 10.887 26.4265 12.8797C26.2882 14.397 25.3336 16.5281 24.6973 17.772C24.6592 17.8463 24.5527 17.8435 24.5146 17.7692C23.6237 16.0294 21.8361 14.7204 20.7108 14.7752Z" fill="white"/>
<path d="M24.971 31.3038C24.5655 31.3411 23.7586 31.0982 23.4107 30.6715C23.2329 30.4534 23.2712 30.1438 23.3906 29.8889C23.7782 29.0621 24.6804 28.1397 25.0069 27.3213C25.6651 25.6714 25.8874 24.2195 25.7869 23.2907C25.6448 21.978 26.4987 21.2634 28.33 20.4833C30.8207 19.4223 32.5075 21.8243 32.1396 23.1736C31.7254 24.6931 31.6843 26.4025 30.0453 28.3588C28.7678 29.8836 26.1639 31.194 24.971 31.3038Z" fill="white"/>
<path d="M30.4702 16.5746C32.5137 16.6121 33.7364 17.6315 31.8754 19.9586C31.8244 20.0223 31.7307 20.0343 31.6648 19.9862C31.0605 19.5449 30.0559 18.9886 28.6779 19.3357C27.6942 19.5834 26.5186 20.2604 25.7869 21.0684C25.7496 21.1095 25.6791 21.0887 25.6716 21.0337C25.629 20.7215 25.511 19.9698 25.2964 19.4042C25.2431 19.2635 25.239 19.1053 25.3082 18.9717C26.5968 16.4837 29.2172 16.5515 30.4702 16.5746Z" fill="white"/>
<path d="M32.8713 11.528C33.1068 13.3669 31.7828 14.5574 30.7267 14.9038C29.6706 15.2502 28.1074 15.0506 28.031 14.2515C27.9545 13.4524 29.5257 11.7884 30.1609 10.3198C30.7961 8.85115 32.6358 9.68912 32.8713 11.528Z" fill="white"/>
</svg>
