<svg width="119" height="40" viewBox="0 0 119 40" fill="none" xmlns="http://www.w3.org/2000/svg">
<g clip-path="url(#clip0_117_787)">
<path d="M50.0596 16.1918C50.4265 16.045 50.8668 15.8249 51.2337 15.6781C51.6739 15.458 52.0408 15.2379 52.4811 15.0177C53.2675 14.5597 53.9841 13.9914 54.6092 13.33H56.7372V27.1989H53.7286V17.1458C53.3136 17.4334 52.8712 17.6792 52.4078 17.8796C51.9317 18.1067 51.4415 18.3028 50.9401 18.4666L50.0596 16.1918Z" fill="white"/>
<path d="M70.7528 20.1543C70.7528 22.5025 70.3126 24.2636 69.432 25.5111C69.0048 26.0807 68.4508 26.543 67.814 26.8614C67.1772 27.1798 66.475 27.3456 65.763 27.3456C65.051 27.3456 64.3487 27.1798 63.7119 26.8614C63.0751 26.543 62.5211 26.0807 62.0939 25.5111C61.2134 24.2636 60.7731 22.5025 60.7731 20.1543C60.7686 19.1158 60.8919 18.0807 61.14 17.0723C61.3469 16.2599 61.6946 15.49 62.1673 14.7975C62.5769 14.202 63.1328 13.7218 63.7817 13.4033C64.4189 13.0788 65.1214 12.9031 65.8363 12.8896C66.5532 12.8599 67.2658 13.0127 67.9075 13.3335C68.5492 13.6544 69.099 14.1329 69.5054 14.7241C70.3859 15.9716 70.7528 17.8795 70.7528 20.1543ZM67.6709 20.1543C67.6845 19.5174 67.66 18.8803 67.5975 18.2464C67.5495 17.7485 67.4511 17.2568 67.3039 16.7788C67.1876 16.4183 66.9862 16.0912 66.7169 15.8248C66.4568 15.5862 66.1159 15.4551 65.763 15.4579C65.4126 15.4685 65.0762 15.5979 64.809 15.8248C64.5397 16.0912 64.3383 16.4183 64.222 16.7788C64.0399 17.2473 63.9406 17.7439 63.9284 18.2464C63.8644 18.8802 63.8399 19.5174 63.8551 20.1543C63.8399 20.7912 63.8644 21.4284 63.9284 22.0622C63.9689 22.5612 64.0674 23.0537 64.222 23.5298C64.3383 23.8903 64.5397 24.2175 64.809 24.4838C65.0691 24.7224 65.41 24.8535 65.763 24.8507C66.1133 24.8401 66.4497 24.7107 66.7169 24.4838C66.9862 24.2175 67.1876 23.8903 67.3039 23.5298C67.4511 23.0518 67.5495 22.5601 67.5975 22.0622C67.6631 21.4285 67.6876 20.7912 67.6709 20.1543Z" fill="white"/>
<path d="M82.3472 14.7976C82.494 15.3112 82.7141 15.9717 82.8609 16.6321C83.081 17.2925 83.2278 18.0263 83.4479 18.7601L84.1084 20.9615C84.3285 21.6954 84.5487 22.3558 84.7688 23.0162C84.9156 22.3558 85.1357 21.622 85.2825 20.8148C85.4292 20.0076 85.6494 19.2004 85.7961 18.3198C85.9429 17.4393 86.0896 16.6321 86.2364 15.7515C86.3832 14.871 86.5299 14.0638 86.6767 13.33H89.9054C89.4652 15.6781 88.8781 18.0263 88.2911 20.3745C87.704 22.7961 87.0436 24.9975 86.3098 27.1989H83.4479C83.0077 25.9514 82.494 24.5572 82.0537 23.163C81.6134 21.7687 81.1731 20.3745 80.7329 18.9069C80.2926 20.3011 79.8523 21.6954 79.4854 23.163C79.1185 24.6306 78.6048 25.8781 78.1645 27.1989H75.3027C74.5689 25.0709 73.9085 22.7961 73.3214 20.3745C72.7344 17.9529 72.1473 15.6048 71.707 13.33H75.0825L75.5228 15.7515C75.6696 16.6321 75.8164 17.4393 76.0365 18.3198C76.1833 19.2004 76.4034 20.0076 76.5502 20.8148C76.693 21.5617 76.8892 22.2974 77.1372 23.0162C77.3573 22.3558 77.5775 21.6954 77.871 20.9615L78.5314 18.7601C78.7516 18.0263 78.9717 17.2925 79.1185 16.6321C79.2652 15.9717 79.4854 15.3112 79.6321 14.7976H82.3472Z" fill="white"/>
<path d="M90.6392 21.9889C90.5995 20.4489 91.1509 18.9523 92.1802 17.8062C92.6415 17.3558 93.1912 17.006 93.7946 16.7788C94.3803 16.5516 95.001 16.4274 95.6291 16.4119C96.282 16.3769 96.9347 16.4833 97.5427 16.7239C98.1506 16.9646 98.6994 17.3337 99.1514 17.8062C100.107 18.9243 100.582 20.3752 100.472 21.8421V22.4291C100.484 22.6277 100.459 22.8267 100.399 23.0162H93.6478C93.6822 23.3093 93.7784 23.5917 93.9303 23.8447C94.0821 24.0977 94.286 24.3156 94.5284 24.4838C95.1415 24.8684 95.861 25.0483 96.5831 24.9975C97.1239 24.985 97.6632 24.936 98.1974 24.8507C98.6509 24.7821 99.0944 24.6589 99.5183 24.4838L99.8852 26.9054C99.6731 27.0011 99.4518 27.0748 99.2248 27.1255L98.3442 27.3457C98.0089 27.4356 97.6639 27.4849 97.3169 27.4924C96.9533 27.5533 96.5846 27.5779 96.2161 27.5658C95.3638 27.582 94.5165 27.4325 93.7212 27.1255C93.0563 26.8658 92.4555 26.4653 91.9601 25.9514C91.4917 25.4475 91.1408 24.846 90.9327 24.1903C90.7273 23.4749 90.6284 22.7331 90.6392 21.9889ZM97.6104 20.8148C97.597 20.5644 97.5476 20.3172 97.4636 20.081C97.3699 19.8461 97.2466 19.6242 97.0967 19.4205C96.9548 19.2131 96.7485 19.0584 96.5097 18.9803C96.2362 18.8482 95.9306 18.7972 95.6291 18.8335C95.3301 18.8404 95.0336 18.8898 94.7485 18.9803C94.54 19.109 94.3435 19.2564 94.1615 19.4205C93.9967 19.6143 93.872 19.8387 93.7946 20.081C93.7212 20.3745 93.6478 20.5946 93.5744 20.8148H97.6104Z" fill="white"/>
<path d="M112.58 21.9155C112.578 22.6883 112.454 23.4559 112.213 24.1903C111.99 24.8557 111.613 25.4591 111.112 25.9514C110.647 26.4495 110.068 26.8272 109.425 27.0521C108.666 27.2983 107.874 27.4221 107.077 27.419C106.708 27.4311 106.339 27.4066 105.976 27.3456C105.609 27.2723 105.169 27.2723 104.802 27.1989L103.701 26.9787C103.334 26.9054 103.041 26.832 102.747 26.7586V12.0825L105.756 11.5688V16.7788C106.443 16.4485 107.195 16.2732 107.957 16.2652C108.634 16.2667 109.306 16.391 109.938 16.6321C110.486 16.9142 110.982 17.2863 111.406 17.7328C111.8 18.2638 112.098 18.8599 112.287 19.4939C112.497 20.2835 112.596 21.0985 112.58 21.9155ZM109.571 21.8421C109.571 19.9342 108.838 18.9802 107.443 18.9802C107.145 18.9933 106.849 19.0426 106.563 19.127C106.303 19.1798 106.054 19.2792 105.829 19.4205V24.8507C105.976 24.8507 106.196 24.9241 106.416 24.9241H107.15C107.497 24.9386 107.843 24.8733 108.161 24.7334C108.479 24.5935 108.761 24.3826 108.984 24.1169C109.376 23.423 109.578 22.6386 109.571 21.8421Z" fill="white"/>
<path d="M6.72286 13.1757L20.0747 -0.176079C20.2408 -0.339168 20.4642 -0.430542 20.697 -0.430542C20.9298 -0.430542 21.1532 -0.339168 21.3193 -0.176079L40.555 19.1727C40.7181 19.3388 40.8095 19.5623 40.8095 19.7951C40.8095 20.0278 40.7181 20.2513 40.555 20.4174L40.4419 20.5305C39.6745 21.2917 38.6374 21.7188 37.5565 21.7188C36.4756 21.7188 35.4385 21.2917 34.6711 20.5305L21.093 6.95243C20.9269 6.78934 20.7035 6.69797 20.4707 6.69797C20.2379 6.69797 20.0145 6.78934 19.8484 6.95243L12.2673 14.5335C11.4999 15.2947 10.4628 15.7218 9.38191 15.7218C8.30104 15.7218 7.26395 15.2947 6.49656 14.5335C6.41837 14.3063 6.39811 14.0631 6.43763 13.826C6.47714 13.5889 6.57518 13.3654 6.72286 13.1757Z" fill="white"/>
<path d="M34.7842 25.9618L21.4324 39.3136C21.2663 39.4767 21.0429 39.5681 20.8101 39.5681C20.5773 39.5681 20.3538 39.4767 20.1878 39.3136L0.838935 19.9648C0.675847 19.7987 0.584473 19.5752 0.584473 19.3425C0.584473 19.1097 0.675847 18.8862 0.838935 18.7201C1.60633 17.959 2.64341 17.5319 3.72429 17.5319C4.80516 17.5319 5.84224 17.959 6.60964 18.7201L20.0746 32.1851C20.2407 32.3482 20.4642 32.4396 20.6969 32.4396C20.9297 32.4396 21.1532 32.3482 21.3193 32.1851L28.9004 24.604C29.6678 23.8428 30.7049 23.4157 31.7857 23.4157C32.8666 23.4157 33.9037 23.8428 34.6711 24.604C34.7711 24.6834 34.8537 24.7824 34.914 24.8949C34.9742 25.0075 35.0108 25.1312 35.0214 25.2584C35.032 25.3856 35.0164 25.5137 34.9756 25.6347C34.9348 25.7556 34.8697 25.867 34.7842 25.9618Z" fill="white"/>
<path d="M22.1115 19.1728L18.8301 15.8914C18.3928 15.412 18.1504 14.7865 18.1504 14.1375C18.1504 13.4886 18.3928 12.8631 18.8301 12.3837L18.9433 12.2706C19.1675 12.0296 19.4389 11.8374 19.7406 11.706C20.0424 11.5745 20.368 11.5067 20.6971 11.5067C21.0262 11.5067 21.3518 11.5745 21.6536 11.706C21.9553 11.8374 22.2268 12.0296 22.451 12.2706L29.24 19.0596C29.4031 19.2257 29.4945 19.4492 29.4945 19.6819C29.4945 19.9147 29.4031 20.1382 29.24 20.3043L22.6773 26.867C22.4531 27.108 22.1817 27.3002 21.8799 27.4316C21.5781 27.563 21.2526 27.6309 20.9234 27.6309C20.5943 27.6309 20.2687 27.563 19.9669 27.4316C19.6652 27.3002 19.3938 27.108 19.1696 26.867C18.9286 26.6428 18.7364 26.3714 18.605 26.0697C18.4736 25.7679 18.4057 25.4423 18.4057 25.1132C18.4057 24.7841 18.4736 24.4585 18.605 24.1567C18.7364 23.855 18.9286 23.5835 19.1696 23.3593L22.2247 20.3043C22.3433 20.133 22.3971 19.925 22.3763 19.7177C22.3556 19.5103 22.2617 19.3172 22.1115 19.1728Z" fill="white"/>
<path d="M18.0377 18.8333L16.9062 17.7018C16.682 17.4608 16.4106 17.2686 16.1088 17.1372C15.8071 17.0058 15.4815 16.9379 15.1523 16.9379C14.8232 16.9379 14.4976 17.0058 14.1958 17.1372C13.8941 17.2686 13.6227 17.4608 13.3985 17.7018C12.9612 18.1812 12.7187 18.8067 12.7188 19.4556C12.7187 20.1045 12.9612 20.73 13.3985 21.2094C13.6227 21.4504 13.8941 21.6426 14.1958 21.774C14.4976 21.9055 14.8232 21.9733 15.1523 21.9733C15.4815 21.9733 15.8071 21.9055 16.1088 21.774C16.4106 21.6426 16.682 21.4504 16.9062 21.2094L18.0377 20.0779C18.2008 19.9118 18.2921 19.6884 18.2921 19.4556C18.2921 19.2228 18.2008 18.9994 18.0377 18.8333Z" fill="white"/>
</g>
<defs>
<clipPath id="clip0_117_787">
<rect width="118" height="40" fill="white" transform="translate(0.584473)"/>
</clipPath>
</defs>
</svg>
