<svg width="128" height="41" viewBox="0 0 128 41" fill="none" xmlns="http://www.w3.org/2000/svg">
<g clip-path="url(#clip0_117_800)">
<mask id="mask0_117_800" style="mask-type:luminance" maskUnits="userSpaceOnUse" x="0" y="0" width="167" height="41">
<path d="M166.184 0.647461H0.584473V40.4911H166.184V0.647461Z" fill="white"/>
</mask>
<g mask="url(#mask0_117_800)">
<path d="M48.647 14.3826H52.485V25.0136H54.5283V14.3826H58.3663V12.5693H48.647V14.3826Z" fill="white"/>
<path d="M61.261 25.0667L60.9057 25.9555C60.6213 26.7022 60.198 26.88 59.4518 26.88L58.7207 28.5689H60.4081C61.7407 28.5689 62.1317 27.9111 62.7002 26.4356L66.8225 15.9112H64.7792L62.3093 22.8267L59.7685 15.9112H57.7251L61.261 25.0667Z" fill="white"/>
<path d="M72.3016 15.8049C70.88 15.8049 69.9383 16.4626 69.3344 17.2627L69.1032 15.9116H67.4331V28.5693H69.3523V23.7337C69.9209 24.5515 70.898 25.1203 72.3016 25.1203C74.7895 25.1203 76.6017 23.2715 76.6017 20.4626C76.6017 17.5471 74.7895 15.8049 72.3016 15.8049ZM71.9817 23.5026C70.3828 23.5026 69.3344 22.2404 69.3344 20.4271C69.3344 18.6671 70.3828 17.4404 71.9817 17.4404C73.5812 17.4404 74.647 18.6671 74.647 20.4626C74.647 22.2404 73.5812 23.5026 71.9817 23.5026Z" fill="white"/>
<path d="M82.105 25.1203C84.3617 25.1203 85.8894 23.7515 86.2093 21.9559H84.2905C84.0239 22.9693 83.1709 23.5559 81.9984 23.5559C80.4882 23.5559 79.5106 22.5426 79.4572 20.9959V20.8715H86.3159C86.3513 20.6226 86.3692 20.3737 86.3692 20.1426C86.3159 17.476 84.557 15.8049 81.9272 15.8049C79.244 15.8049 77.4497 17.6715 77.4497 20.4803C77.4497 23.2715 79.244 25.1203 82.105 25.1203ZM79.5285 19.4671C79.6705 18.1693 80.7189 17.3515 81.9451 17.3515C83.2775 17.3515 84.2192 18.116 84.3792 19.4671H79.5285Z" fill="white"/>
<path d="M89.3466 25.0134H91.4254L93.4155 18.8267L95.3343 25.0134H97.3952L100.416 15.9112H98.4615L96.3119 22.8801L94.3218 15.9112H92.5624L90.4837 22.8801L88.4049 15.9112H86.3794L89.3466 25.0134Z" fill="white"/>
<path d="M101.075 25.0134H102.993V15.9112H101.075V25.0134Z" fill="white"/>
<path d="M104.126 22.0093C104.179 23.9827 105.849 25.1204 108.284 25.1204C110.487 25.1204 112.14 24.0182 112.14 22.276C112.14 20.2493 110.452 19.8227 108.373 19.5738C107.058 19.4316 106.187 19.3249 106.187 18.4715C106.187 17.7427 106.934 17.2804 108.071 17.2804C109.207 17.2804 109.99 17.8671 110.096 18.7026H111.98C111.855 16.836 110.274 15.8049 108.035 15.8049C105.849 15.7871 104.304 16.9071 104.304 18.6316C104.304 20.516 105.939 20.9605 108.017 21.2093C109.421 21.3871 110.256 21.4582 110.256 22.436C110.256 23.1649 109.474 23.6271 108.284 23.6271C106.898 23.6271 106.081 22.9515 106.009 22.0093H104.126Z" fill="white"/>
<path d="M117.591 25.1203C119.847 25.1203 121.376 23.7514 121.695 21.9559H119.776C119.51 22.9693 118.657 23.5559 117.484 23.5559C115.974 23.5559 114.996 22.5426 114.944 20.9959V20.8714H121.802C121.838 20.6226 121.856 20.3737 121.856 20.1426C121.802 17.476 120.042 15.8049 117.413 15.8049C114.73 15.8049 112.936 17.6715 112.936 20.4803C112.936 23.2715 114.73 25.1203 117.591 25.1203ZM115.014 19.467C115.157 18.1693 116.205 17.3515 117.43 17.3515C118.764 17.3515 119.705 18.1159 119.865 19.467H115.014Z" fill="white"/>
<mask id="mask1_117_800" style="mask-type:luminance" maskUnits="userSpaceOnUse" x="0" y="0" width="41" height="41">
<path d="M40.2866 0.647461H0.584473V40.4911H40.2866V0.647461Z" fill="white"/>
</mask>
<g mask="url(#mask1_117_800)">
<path d="M17.3213 40.3851C22.5746 39.2961 27.7523 37.8671 32.8218 36.1072C33.549 35.8557 34.2094 35.4414 34.7532 34.8957C35.297 34.3499 35.7098 33.6872 35.9604 32.9574C37.693 27.8639 39.1082 22.6673 40.1981 17.3975C40.3504 16.6625 40.3327 15.9022 40.1466 15.1752C39.9603 14.4481 39.6106 13.7736 39.1241 13.2034C35.585 9.16158 31.7864 5.35646 27.7525 1.8123C27.1853 1.32299 26.5122 0.973382 25.7866 0.791344C25.061 0.609305 24.3031 0.599869 23.5733 0.763787C18.3176 1.85094 13.1385 3.28138 8.06852 5.04592C7.34082 5.29626 6.67978 5.71019 6.13582 6.25607C5.59186 6.80197 5.17941 7.46538 4.92997 8.19567C3.19158 13.2862 1.77481 18.4818 0.688097 23.7514C0.534943 24.4861 0.551752 25.2461 0.737228 25.9733C0.922704 26.7005 1.2719 27.375 1.75797 27.9456C5.29817 31.9849 9.09671 35.7885 13.1295 39.3324C13.703 39.811 14.3763 40.1537 15.0999 40.3352C15.8234 40.5167 16.5783 40.5324 17.3087 40.3809" fill="#1D58E2"/>
<path d="M18.4507 21.248C18.3041 21.211 18.1517 21.2032 18.0022 21.2254C17.8527 21.2475 17.709 21.299 17.5794 21.3769C17.4497 21.4549 17.3367 21.5576 17.2467 21.6794C17.1567 21.8012 17.0914 21.9397 17.0548 22.0869L16.1563 26.0125C16.0427 26.5165 15.7816 26.9748 15.407 27.3292C15.0322 27.6834 14.5606 27.9174 14.0526 28.0011C13.5446 28.085 13.0231 28.0147 12.5551 27.7994C12.0871 27.584 11.6938 27.2335 11.4255 26.7925C11.0708 26.2041 10.9555 25.5012 11.1036 24.8298L13.4607 12.0714C13.4986 11.9153 13.5043 11.753 13.4775 11.5945C13.4507 11.4361 13.3918 11.2848 13.3047 11.15C13.2174 11.0152 13.1035 10.8998 12.9702 10.8107C12.8368 10.7218 12.6867 10.661 12.5291 10.6324C12.3715 10.6038 12.2098 10.6078 12.0538 10.6442C11.8978 10.6806 11.7509 10.7486 11.622 10.8441C11.4932 10.9396 11.3852 11.0606 11.3047 11.1994C11.2242 11.3384 11.1728 11.4924 11.1538 11.652L10.3054 16.2151L7.19609 17.2637C7.05039 17.3114 6.91569 17.3878 6.79988 17.4886C6.68407 17.5893 6.58952 17.7123 6.52176 17.8502C6.454 17.9882 6.41441 18.1382 6.40533 18.2919C6.39627 18.4454 6.41788 18.5992 6.4689 18.7441C6.54997 18.9849 6.70565 19.1934 6.91317 19.339C7.1207 19.4846 7.36921 19.5598 7.62236 19.5535C7.73138 19.5481 7.83937 19.5298 7.94416 19.4991L9.82481 18.8783L8.80505 24.3306C8.64241 25.0713 8.65097 25.8394 8.83009 26.5761C9.00913 27.3129 9.35401 27.9986 9.83817 28.581C10.3223 29.1632 10.933 29.6264 11.6232 29.9352C12.3135 30.2438 13.065 30.3898 13.8201 30.3618C14.646 30.3206 15.4488 30.0742 16.1563 29.6446C16.7087 29.3073 17.1878 28.8622 17.5654 28.3354C17.9431 27.8088 18.2114 27.2114 18.3546 26.5787L19.2656 22.6741C19.3084 22.5266 19.3211 22.3721 19.3031 22.2197C19.2851 22.0673 19.2365 21.9202 19.1604 21.787C19.0843 21.6539 18.9822 21.5375 18.8602 21.4449C18.7383 21.3522 18.599 21.2854 18.4507 21.248Z" fill="white"/>
<path d="M16.7811 15.2709C16.7331 15.1261 16.6569 14.9923 16.5569 14.8772C16.4569 14.762 16.3353 14.668 16.1988 14.6006C16.0623 14.5331 15.9139 14.4935 15.762 14.484C15.6103 14.4746 15.4579 14.4954 15.3143 14.5454L14.2443 14.8935L13.7847 17.5064L16.0373 16.7515C16.3313 16.6538 16.5746 16.443 16.714 16.1655C16.8535 15.888 16.8776 15.5663 16.7811 15.2709Z" fill="white"/>
<path d="M22.0438 28.1638C21.5934 28.1959 21.1409 28.1578 20.7023 28.0506C20.0709 27.9079 19.4746 27.639 18.9489 27.26C18.4233 26.8809 17.9792 26.3996 17.6432 25.8445C17.2995 25.2973 17.0702 24.686 16.9689 24.0472C16.8676 23.4085 16.8964 22.7558 17.0539 22.1286C17.1253 21.8288 17.3126 21.5698 17.5743 21.4085C17.8361 21.2473 18.1509 21.197 18.4497 21.2689C18.7485 21.3406 19.0064 21.5285 19.1672 21.7912C19.3278 22.0539 19.3779 22.3699 19.3064 22.6697C19.2289 23.0018 19.2174 23.346 19.2724 23.6825C19.3276 24.0192 19.4482 24.3416 19.6275 24.6314C19.8068 24.9212 20.0412 25.1727 20.3174 25.3715C20.5937 25.5702 20.9062 25.7125 21.2372 25.79C21.5684 25.8685 21.9118 25.8805 22.2477 25.8255C22.5837 25.7705 22.9054 25.6496 23.1946 25.4697C23.4839 25.2896 23.7349 25.0541 23.9333 24.7766C24.1316 24.4991 24.2735 24.185 24.3507 23.8524L25.2618 19.9519C25.2961 19.8026 25.3595 19.6618 25.4485 19.5372C25.5372 19.4126 25.6497 19.3071 25.7793 19.2263C25.9091 19.1456 26.0534 19.0914 26.2041 19.0668C26.3546 19.0422 26.5086 19.0478 26.6572 19.0832C26.8056 19.1185 26.9457 19.183 27.0692 19.2729C27.1927 19.3629 27.2974 19.4764 27.3769 19.607C27.4567 19.7377 27.5098 19.8828 27.5333 20.0341C27.557 20.1855 27.5505 20.3399 27.5143 20.4887L26.6033 24.3725C26.4594 25.0049 26.1909 25.602 25.8133 26.1285C25.4357 26.6553 24.9569 27.1005 24.405 27.4383C23.6987 27.8917 22.8821 28.1426 22.0438 28.1638Z" fill="white"/>
<path d="M30.2493 25.987C29.3752 26.0193 28.508 25.8194 27.7354 25.4078C26.9627 24.9961 26.3118 24.3873 25.8487 23.6426C25.5054 23.096 25.2763 22.4853 25.1749 21.8473C25.0737 21.2094 25.1025 20.5573 25.2593 19.9308C25.2937 19.7817 25.3573 19.6407 25.446 19.5161C25.5349 19.3917 25.6473 19.286 25.7771 19.2053C25.9067 19.1246 26.051 19.0703 26.2017 19.0457C26.3523 19.0213 26.5064 19.0269 26.6548 19.0622C26.8032 19.0976 26.9433 19.1621 27.0668 19.252C27.1904 19.3419 27.295 19.4554 27.3747 19.5861C27.4544 19.7166 27.5074 19.8618 27.5311 20.0131C27.5546 20.1644 27.5481 20.3189 27.5121 20.4677C27.4338 20.7999 27.4219 21.1441 27.4768 21.4809C27.5316 21.8177 27.6521 22.1404 27.8315 22.4304C28.0109 22.7202 28.2457 22.9717 28.5221 23.1705C28.7986 23.3692 29.1115 23.511 29.4428 23.5881C30.1073 23.7417 30.8054 23.6279 31.3874 23.2713C31.9694 22.9146 32.389 22.3432 32.5562 21.6798L33.4673 17.7751C33.5388 17.4753 33.726 17.2163 33.9878 17.0551C34.2496 16.8938 34.5645 16.8436 34.8632 16.9154C35.1619 16.9871 35.42 17.175 35.5806 17.4377C35.7412 17.7005 35.7914 18.0163 35.7199 18.3161L34.8089 22.2165C34.5601 23.2569 33.9806 24.1875 33.158 24.8678C32.3353 25.548 31.3144 25.9409 30.2493 25.987Z" fill="white"/>
</g>
</g>
</g>
<defs>
<clipPath id="clip0_117_800">
<rect width="127" height="40" fill="white" transform="translate(0.584473 0.569336)"/>
</clipPath>
</defs>
</svg>
