<svg width="146" height="41" viewBox="0 0 146 41" fill="none" xmlns="http://www.w3.org/2000/svg">
<path d="M16.9875 7.92914H38.4795L38.7855 6.56382C39.2328 4.44524 37.632 2.44434 35.4663 2.44434H14.5865C11.8794 2.44434 9.54892 4.32752 8.96042 6.964L4.39367 28.0558C3.94642 30.1743 5.54712 32.1753 7.7128 32.1753H8.98395L13.6449 10.6127C13.998 9.05905 15.3868 7.92914 16.9875 7.92914Z" fill="#00CDFA"/>
<path d="M39.751 7.93018H38.4798L33.8188 29.4927C33.4893 31.0463 32.1005 32.1763 30.4998 32.1763H9.00779L8.70178 33.5417C8.25453 35.6602 9.85524 37.6612 12.0209 37.6612H32.9008C35.608 37.6612 37.9383 35.7778 38.5268 33.1415L43.0936 12.0732C43.5408 9.93108 41.9166 7.93018 39.751 7.93018Z" fill="url(#paint0_linear_117_771)"/>
<path d="M33.8185 29.4927L38.4793 7.93018H16.9874C15.3866 7.93018 13.9978 9.03656 13.6682 10.6137L9.00732 32.1763H30.4993C32.1 32.1763 33.4653 31.0463 33.8185 29.4927Z" fill="#3A00FF"/>
<path d="M15.9986 23.948L14.4434 15.8623H16.8823L17.6335 20.9082L20.099 15.8623H21.7425L22.7058 20.9082L24.968 15.8623H27.407L23.4568 23.948H21.4156L20.4435 19.2115L18.0665 23.948H15.9986Z" fill="white"/>
<path d="M26.5513 22.6397L27.8238 21.164C28.3981 21.8708 29.1228 22.2332 30.0153 22.2332C30.5896 22.2332 31.0933 21.9947 31.1729 21.597C31.1994 21.3583 31.0403 21.1552 30.6691 20.9783C30.5808 20.9342 30.3864 20.8635 30.0771 20.7575C29.4674 20.5188 29.2023 20.4305 28.6721 20.0947C27.9298 19.6352 27.5763 18.999 27.6999 17.9032C27.9386 16.4098 29.3083 15.5791 31.0403 15.5791C32.2244 15.5791 33.1964 15.9679 33.9829 16.7367L32.7281 18.2037C32.2068 17.7177 31.6059 17.479 30.9254 17.479C30.3776 17.479 30.0506 17.638 29.9799 17.9827C29.9181 18.2655 30.0683 18.504 30.4218 18.6632C30.5366 18.725 30.7753 18.8222 31.1288 18.9547C31.4821 19.0873 31.7826 19.2022 32.0301 19.3435C32.8253 19.6793 33.7621 20.4658 33.4793 21.6677C33.3468 22.4542 32.9491 23.0727 32.2774 23.5145C31.6148 23.9563 30.8106 24.1773 29.9093 24.1773C28.4599 24.1685 27.3378 23.6647 26.5513 22.6397Z" fill="white"/>
<path d="M56.1733 27.2138H53.8895L49.416 13.6992H52.3827L55.1138 22.7875L58.1747 13.6992H59.8935L63.0248 22.7875L65.709 13.6992H68.6755L64.2257 27.2138H61.9419L59.0694 18.361L56.1733 27.2138Z" fill="white"/>
<path d="M71.2178 27.2135H68.6279V17.2542H71.1236V18.5962C71.7123 17.5132 72.6304 16.9951 73.8548 16.9951C74.2551 16.9951 74.6553 17.0658 75.0556 17.207L74.8436 19.6792C74.3963 19.538 74.0196 19.4673 73.6664 19.4673C72.9129 19.4673 72.3244 19.7263 71.8771 20.2207C71.4533 20.7152 71.2178 21.4687 71.2178 22.481V27.2135Z" fill="white"/>
<path d="M78.5406 14.5476C78.5406 14.995 78.3994 15.3717 78.0932 15.6777C77.7872 15.9838 77.4106 16.1251 76.9632 16.1251C76.5157 16.1251 76.1391 15.9838 75.8331 15.6777C75.5269 15.3717 75.3857 14.995 75.3857 14.5476C75.3857 14.1003 75.5269 13.7235 75.8331 13.441C76.1391 13.1349 76.5157 12.9937 76.9632 12.9937C77.4106 12.9937 77.7872 13.1349 78.0932 13.441C78.3994 13.7235 78.5406 14.1003 78.5406 14.5476ZM78.2346 17.2552V27.2147H75.6447V17.2552H78.2346Z" fill="white"/>
<path d="M86.2409 24.6003L87.0179 26.6252C86.1939 27.1668 85.2049 27.4493 84.0749 27.4493C82.9211 27.4493 82.0736 27.1197 81.4849 26.4605C80.8963 25.8012 80.6138 24.8123 80.6138 23.5173V19.397H78.9893V17.2309H80.6373V13.6992H83.2038V17.2309H86.4999V19.397H83.2038V23.3525C83.2038 24.5298 83.6746 25.1183 84.6164 25.1183C85.0873 25.1183 85.6523 24.9535 86.2409 24.6003Z" fill="white"/>
<path d="M97.0237 22.0102C97.0237 22.3162 97 22.693 96.9293 23.1403H89.4422C89.819 24.553 90.7842 25.2593 92.3382 25.2593C93.4918 25.2593 94.575 24.9297 95.5638 24.2468L96.5762 26.0598C95.3048 26.978 93.8687 27.4253 92.2205 27.4253C90.4782 27.4253 89.1362 26.931 88.1943 25.9185C87.2762 24.9297 86.8052 23.6818 86.8052 22.222C86.8052 20.6917 87.2762 19.4438 88.2415 18.4785C89.2068 17.4895 90.4547 16.9951 91.985 16.9951C93.4448 16.9951 94.622 17.4425 95.5638 18.3372C96.5527 19.2553 97.0237 20.4797 97.0237 22.0102ZM92.0322 19.1377C91.3963 19.1377 90.8313 19.326 90.384 19.7027C89.9367 20.0795 89.6305 20.5738 89.4658 21.2332H94.5278C94.4102 20.5975 94.1277 20.0795 93.6802 19.7027C93.2328 19.326 92.6913 19.1377 92.0322 19.1377Z" fill="white"/>
<path d="M101.355 27.473C99.6129 27.473 98.2474 26.8373 97.2349 25.5423L98.6005 23.9178C98.9537 24.3417 99.3775 24.6712 99.8719 24.9302C100.366 25.1892 100.861 25.3068 101.355 25.3068C101.756 25.3068 102.062 25.2127 102.344 25.0243C102.603 24.836 102.744 24.6005 102.744 24.318C102.744 23.9648 102.509 23.6823 102.038 23.4705C101.897 23.3998 101.497 23.2585 100.861 23.023C100.296 22.8112 99.8719 22.6463 99.5894 22.4815C98.4357 21.94 97.8707 21.0688 97.8707 19.8917C97.8707 19.0205 98.2002 18.3142 98.883 17.7255C99.5424 17.1605 100.461 16.8779 101.591 16.8779C103.003 16.8779 104.181 17.3488 105.075 18.3142L103.804 19.9858C103.098 19.3265 102.344 18.997 101.52 18.997C101.19 18.997 100.908 19.0675 100.696 19.2323C100.484 19.3972 100.366 19.5855 100.366 19.821C100.366 20.2448 100.649 20.5508 101.238 20.7392C102.533 21.2337 103.333 21.5398 103.639 21.7045C104.769 22.2932 105.311 23.1408 105.311 24.2238C105.311 25.1657 104.934 25.919 104.204 26.5312C103.498 27.167 102.556 27.473 101.355 27.473Z" fill="white"/>
<path d="M105.78 22.2237C105.78 20.7403 106.274 19.516 107.287 18.5035C108.299 17.4912 109.57 16.9731 111.124 16.9731C112.678 16.9731 113.95 17.4912 114.962 18.5035C115.951 19.4925 116.469 20.7403 116.469 22.2237C116.469 23.707 115.975 24.9548 114.962 25.9437C113.95 26.956 112.678 27.4505 111.124 27.4505C109.57 27.4505 108.299 26.956 107.287 25.9437C106.274 24.9548 105.78 23.707 105.78 22.2237ZM109.147 24.2485C109.665 24.79 110.324 25.0725 111.124 25.0725C111.901 25.0725 112.537 24.79 113.079 24.2485C113.62 23.6833 113.879 23.0005 113.879 22.2237C113.879 21.4467 113.62 20.7638 113.079 20.2223C112.537 19.6808 111.901 19.3982 111.124 19.3982C110.324 19.3982 109.665 19.6808 109.147 20.2223C108.629 20.7638 108.37 21.4232 108.37 22.2237C108.37 23.0242 108.629 23.7068 109.147 24.2485Z" fill="white"/>
<path d="M120.119 27.2135H117.529V17.2542H120.049V18.6432C120.308 18.1488 120.731 17.7485 121.296 17.4425C121.861 17.1364 122.474 16.9951 123.18 16.9951C124.263 16.9951 125.181 17.3483 125.935 18.0782C126.688 18.808 127.065 19.8205 127.065 21.139V27.237H124.475V21.8453C124.475 21.0683 124.287 20.4562 123.91 20.0323C123.533 19.6085 123.015 19.3732 122.379 19.3732C121.697 19.3732 121.155 19.6085 120.731 20.0795C120.308 20.5503 120.096 21.1625 120.096 21.8923V27.2135H120.119Z" fill="white"/>
<path d="M131.492 14.5476C131.492 14.995 131.351 15.3717 131.044 15.6777C130.738 15.9838 130.362 16.1251 129.914 16.1251C129.467 16.1251 129.09 15.9838 128.784 15.6777C128.478 15.3717 128.337 14.995 128.337 14.5476C128.337 14.1003 128.478 13.7235 128.784 13.441C129.09 13.1349 129.467 12.9937 129.914 12.9937C130.362 12.9937 130.738 13.1349 131.044 13.441C131.351 13.7235 131.492 14.1003 131.492 14.5476ZM131.186 17.2552V27.2147H128.596V17.2552H131.186Z" fill="white"/>
<path d="M137.519 27.4498C135.989 27.4498 134.718 26.9553 133.705 25.99C132.716 25.0247 132.222 23.7768 132.222 22.2465C132.222 20.716 132.716 19.4682 133.729 18.5028C134.741 17.514 136.036 17.0195 137.59 17.0195C138.602 17.0195 139.544 17.255 140.368 17.7493C141.192 18.2438 141.828 18.9267 142.228 19.7978L140.156 20.928C139.544 19.9155 138.697 19.421 137.614 19.421C136.789 19.421 136.107 19.7037 135.589 20.2452C135.047 20.7867 134.788 21.446 134.788 22.2465C134.788 23.0705 135.047 23.7533 135.565 24.2948C136.107 24.8363 136.766 25.0953 137.566 25.0953C138.084 25.0953 138.579 24.954 139.073 24.6715C139.544 24.389 139.897 24.0358 140.109 23.5885L142.205 24.8128C141.781 25.6133 141.145 26.249 140.321 26.7435C139.474 27.1908 138.532 27.4498 137.519 27.4498Z" fill="white"/>
<defs>
<linearGradient id="paint0_linear_117_771" x1="8.62601" y1="22.799" x2="43.1595" y2="22.799" gradientUnits="userSpaceOnUse">
<stop stop-color="#FFB3FF"/>
<stop offset="0.5335" stop-color="#FF76DF"/>
<stop offset="1" stop-color="#C239C6"/>
</linearGradient>
</defs>
</svg>
