<svg width="183" height="50" viewBox="0 0 183 50" fill="none" xmlns="http://www.w3.org/2000/svg">
<circle cx="25" cy="25" r="25" fill="url(#paint0_linear_117_698)"/>
<path d="M21.5555 11.466L10.536 30.5608C9.82134 31.8042 9.82134 33.2906 10.536 34.5269C11.2506 35.7704 12.5369 36.5136 13.9733 36.5136H17.6465C19.0615 36.5136 20.3764 35.7561 21.0838 34.5269L21.3411 34.0839C21.4054 34.2339 21.4769 34.384 21.5627 34.5269C22.2773 35.7704 23.5636 36.5136 25 36.5136H28.6732C30.0881 36.5136 31.403 35.7561 32.1105 34.5269L32.3678 34.0839C32.4321 34.2339 32.5036 34.384 32.5893 34.5269C33.304 35.7704 34.5903 36.5136 36.0267 36.5136C37.4631 36.5136 38.7494 35.7704 39.464 34.5269C40.1787 33.2835 40.1787 31.7971 39.464 30.5608C38.7494 29.3173 37.4631 28.5741 36.0267 28.5741C35.8623 28.5741 35.698 28.5813 35.5336 28.6027L35.7909 28.1596C36.4983 26.9376 36.4983 25.4155 35.7909 24.1935L33.9543 21.0134C33.2396 19.7699 31.9533 19.0267 30.5169 19.0267C30.3525 19.0267 30.1882 19.0339 30.0238 19.0553L30.2811 18.6122C30.9886 17.3902 30.9886 15.8681 30.2811 14.646L28.4445 11.4731C27.7299 10.2297 26.4435 9.48645 25.0071 9.48645C23.5708 9.48645 22.2844 10.2297 21.5698 11.4731L21.5555 11.466ZM36.0124 30.1463C36.8771 30.1463 37.656 30.5965 38.0848 31.3469C38.5136 32.0972 38.5207 32.9905 38.0848 33.7409C37.6489 34.4912 36.8771 34.9414 36.0124 34.9414C35.1477 34.9414 34.3687 34.4912 33.94 33.7409C33.5041 32.9905 33.5041 32.0972 33.94 31.3469C34.3759 30.5965 35.1477 30.1463 36.0124 30.1463ZM30.5026 20.5917C31.3673 20.5917 32.1463 21.042 32.575 21.7923L34.4116 24.9724C34.8404 25.7085 34.8404 26.6303 34.4116 27.3664L30.7384 33.7337C30.3097 34.4698 29.5164 34.9343 28.666 34.9343H24.9929C24.1282 34.9343 23.3492 34.4841 22.9204 33.7337C22.4845 32.9834 22.4845 32.0901 22.9204 31.3397L28.4302 21.7852C28.8661 21.0348 29.6379 20.5846 30.5026 20.5846V20.5917ZM24.9929 11.0515C25.8576 11.0515 26.6365 11.5017 27.0653 12.2521L28.9019 15.425C29.3306 16.1611 29.3306 17.0829 28.9019 17.819L27.0653 21.0062L21.5555 30.5536L19.7189 33.7337C19.2901 34.4698 18.4969 34.9343 17.6465 34.9343H13.9733C13.1086 34.9343 12.3297 34.4841 11.9009 33.7337C11.465 32.9834 11.465 32.0901 11.9009 31.3397L22.9204 12.2449C23.3564 11.4945 24.1282 11.0443 24.9929 11.0443V11.0515Z" fill="white"/>
<path d="M17.6391 29.1315C17.7606 29.203 17.8964 29.2387 18.0322 29.2387C18.3037 29.2387 18.5682 29.0958 18.7111 28.8456L23.4348 20.6703C23.6491 20.2916 23.5205 19.8128 23.1489 19.5984C22.7702 19.384 22.2914 19.5126 22.077 19.8842L17.3533 28.0596C17.1389 28.4383 17.2675 28.9171 17.6391 29.1315Z" fill="white"/>
<path d="M27.5654 31.1039C27.6869 31.1753 27.8227 31.2111 27.9585 31.2111C28.23 31.2111 28.4944 31.0681 28.6373 30.818L30.917 26.8733C31.1314 26.4945 31.0028 26.0157 30.6312 25.8013C30.2524 25.587 29.7736 25.7156 29.5592 26.0872L27.2796 30.0319C27.0652 30.4107 27.1938 30.8895 27.5654 31.1039Z" fill="white"/>
<path d="M65.7992 34V16.72H69.1112L76.6232 28.24V16.72H79.9352V34H76.6232L69.1112 22.48V34H65.7992ZM88.8276 34.36C87.4996 34.36 86.3276 34.076 85.3116 33.508C84.3036 32.932 83.5116 32.144 82.9356 31.144C82.3676 30.136 82.0836 28.984 82.0836 27.688C82.0836 26.272 82.3636 25.04 82.9236 23.992C83.4836 22.944 84.2556 22.132 85.2396 21.556C86.2236 20.972 87.3556 20.68 88.6356 20.68C89.9956 20.68 91.1516 21 92.1036 21.64C93.0556 22.28 93.7596 23.18 94.2156 24.34C94.6716 25.5 94.8316 26.864 94.6956 28.432H91.4676V27.232C91.4676 25.912 91.2556 24.964 90.8316 24.388C90.4156 23.804 89.7316 23.512 88.7796 23.512C87.6676 23.512 86.8476 23.852 86.3196 24.532C85.7996 25.204 85.5396 26.2 85.5396 27.52C85.5396 28.728 85.7996 29.664 86.3196 30.328C86.8476 30.984 87.6196 31.312 88.6356 31.312C89.2756 31.312 89.8236 31.172 90.2796 30.892C90.7356 30.612 91.0836 30.208 91.3236 29.68L94.5876 30.616C94.0996 31.8 93.3276 32.72 92.2716 33.376C91.2236 34.032 90.0756 34.36 88.8276 34.36ZM84.5316 28.432V26.008H93.1236V28.432H84.5316ZM95.0164 34L99.6484 27.448L95.1124 21.04H98.9524L101.544 24.88L104.088 21.04H107.928L103.392 27.448L108.048 34H104.208L101.544 30.016L98.8564 34H95.0164ZM117.276 34C116.38 34.168 115.5 34.24 114.636 34.216C113.78 34.2 113.012 34.052 112.332 33.772C111.66 33.484 111.148 33.024 110.796 32.392C110.476 31.8 110.308 31.2 110.292 30.592C110.276 29.976 110.268 29.28 110.268 28.504V17.44H113.532V28.312C113.532 28.816 113.536 29.272 113.544 29.68C113.56 30.08 113.644 30.4 113.796 30.64C114.084 31.096 114.544 31.344 115.176 31.384C115.808 31.424 116.508 31.392 117.276 31.288V34ZM108.06 23.56V21.04H117.276V23.56H108.06ZM135.284 34V26.344C135.284 25.488 135.08 24.824 134.672 24.352C134.272 23.872 133.716 23.632 133.004 23.632C132.548 23.632 132.152 23.74 131.816 23.956C131.48 24.164 131.216 24.46 131.024 24.844C130.84 25.22 130.748 25.656 130.748 26.152L129.38 25.24C129.38 24.352 129.588 23.568 130.004 22.888C130.428 22.208 130.992 21.68 131.696 21.304C132.408 20.92 133.196 20.728 134.06 20.728C135.54 20.728 136.656 21.168 137.408 22.048C138.168 22.92 138.548 24.064 138.548 25.48V34H135.284ZM119.66 34V21.04H122.54V25.336H122.948V34H119.66ZM127.484 34V26.344C127.484 25.488 127.28 24.824 126.872 24.352C126.472 23.872 125.916 23.632 125.204 23.632C124.524 23.632 123.976 23.868 123.56 24.34C123.152 24.804 122.948 25.408 122.948 26.152L121.58 25.192C121.58 24.344 121.792 23.584 122.216 22.912C122.64 22.24 123.208 21.708 123.92 21.316C124.64 20.924 125.444 20.728 126.332 20.728C127.348 20.728 128.18 20.944 128.828 21.376C129.484 21.808 129.968 22.384 130.28 23.104C130.592 23.824 130.748 24.616 130.748 25.48V34H127.484ZM141.428 19.24V16.36H144.692V19.24H141.428ZM141.428 34V21.04H144.692V34H141.428ZM156.642 34V27.88C156.642 27.584 156.626 27.208 156.594 26.752C156.562 26.288 156.462 25.824 156.294 25.36C156.126 24.896 155.85 24.508 155.466 24.196C155.09 23.884 154.554 23.728 153.858 23.728C153.578 23.728 153.278 23.772 152.958 23.86C152.638 23.948 152.338 24.12 152.058 24.376C151.778 24.624 151.546 24.992 151.362 25.48C151.186 25.968 151.098 26.616 151.098 27.424L149.226 26.536C149.226 25.512 149.434 24.552 149.85 23.656C150.266 22.76 150.89 22.036 151.722 21.484C152.562 20.932 153.618 20.656 154.89 20.656C155.906 20.656 156.734 20.828 157.374 21.172C158.014 21.516 158.51 21.952 158.862 22.48C159.222 23.008 159.478 23.56 159.63 24.136C159.782 24.704 159.874 25.224 159.906 25.696C159.938 26.168 159.954 26.512 159.954 26.728V34H156.642ZM147.786 34V21.04H150.69V25.336H151.098V34H147.786ZM167.609 34.36C166.417 34.36 165.373 34.06 164.477 33.46C163.581 32.86 162.881 32.044 162.377 31.012C161.881 29.98 161.633 28.816 161.633 27.52C161.633 26.2 161.885 25.028 162.389 24.004C162.901 22.972 163.617 22.16 164.537 21.568C165.457 20.976 166.537 20.68 167.777 20.68C169.009 20.68 170.045 20.98 170.885 21.58C171.725 22.18 172.361 22.996 172.793 24.028C173.225 25.06 173.441 26.224 173.441 27.52C173.441 28.816 173.221 29.98 172.781 31.012C172.349 32.044 171.701 32.86 170.837 33.46C169.973 34.06 168.897 34.36 167.609 34.36ZM168.137 31.456C168.865 31.456 169.445 31.292 169.877 30.964C170.317 30.636 170.633 30.176 170.825 29.584C171.017 28.992 171.113 28.304 171.113 27.52C171.113 26.736 171.017 26.048 170.825 25.456C170.633 24.864 170.325 24.404 169.901 24.076C169.485 23.748 168.937 23.584 168.257 23.584C167.529 23.584 166.929 23.764 166.457 24.124C165.993 24.476 165.649 24.952 165.425 25.552C165.201 26.144 165.089 26.8 165.089 27.52C165.089 28.248 165.197 28.912 165.413 29.512C165.629 30.104 165.961 30.576 166.409 30.928C166.857 31.28 167.433 31.456 168.137 31.456ZM171.113 34V25.12H170.705V16.72H173.993V34H171.113Z" fill="#A03028"/>
<path d="M177.401 34V30.736H180.665V34H177.401Z" fill="white"/>
<defs>
<linearGradient id="paint0_linear_117_698" x1="0.127036" y1="24.9664" x2="50" y2="24.9725" gradientUnits="userSpaceOnUse">
<stop stop-color="#A93E17"/>
<stop offset="1" stop-color="#15399A"/>
</linearGradient>
</defs>
</svg>
