<svg width="31" height="31" viewBox="0 0 31 31" fill="none" xmlns="http://www.w3.org/2000/svg">
<g clip-path="url(#clip0_117_1433)">
<path d="M10.152 27.9265C14.8859 27.9265 18.7234 24.089 18.7234 19.3551C18.7234 14.6213 14.8859 10.7837 10.152 10.7837C5.41813 10.7837 1.58057 14.6213 1.58057 19.3551C1.58057 24.089 5.41813 27.9265 10.152 27.9265Z" stroke="white" stroke-width="1.5" stroke-linecap="round" stroke-linejoin="round"/>
<path d="M20.8664 27.9265C25.6002 27.9265 29.4378 24.089 29.4378 19.3551C29.4378 14.6213 25.6002 10.7837 20.8664 10.7837C16.1325 10.7837 12.2949 14.6213 12.2949 19.3551C12.2949 24.089 16.1325 27.9265 20.8664 27.9265Z" stroke="white" stroke-width="1.5" stroke-linecap="round" stroke-linejoin="round"/>
<path d="M15.5089 19.355C20.2428 19.355 24.0804 15.5175 24.0804 10.7836C24.0804 6.04972 20.2428 2.21216 15.5089 2.21216C10.7751 2.21216 6.9375 6.04972 6.9375 10.7836C6.9375 15.5175 10.7751 19.355 15.5089 19.355Z" stroke="white" stroke-width="1.5" stroke-linecap="round" stroke-linejoin="round"/>
</g>
<defs>
<clipPath id="clip0_117_1433">
<rect width="30" height="30" fill="white" transform="translate(0.509277 0.0693359)"/>
</clipPath>
</defs>
</svg>
