<svg width="30" height="30" viewBox="0 0 30 30" fill="none" xmlns="http://www.w3.org/2000/svg">
<path d="M24.6422 10.7143C24.6422 16.05 14.9993 28.9286 14.9993 28.9286C14.9993 28.9286 5.35645 16.05 5.35645 10.7143C5.35645 8.15682 6.37239 5.70412 8.18077 3.89574C9.98916 2.08735 12.4419 1.07141 14.9993 1.07141C17.5567 1.07141 20.0094 2.08735 21.8178 3.89574C23.6262 5.70412 24.6422 8.15682 24.6422 10.7143V10.7143Z" stroke="white" stroke-width="1.5" stroke-linecap="round" stroke-linejoin="round"/>
<path d="M14.9994 13.9286C16.7746 13.9286 18.2137 12.4895 18.2137 10.7143C18.2137 8.93908 16.7746 7.5 14.9994 7.5C13.2242 7.5 11.7852 8.93908 11.7852 10.7143C11.7852 12.4895 13.2242 13.9286 14.9994 13.9286Z" stroke="white" stroke-width="1.5" stroke-linecap="round" stroke-linejoin="round"/>
</svg>
