<svg width="20" height="21" viewBox="0 0 20 21" fill="none" xmlns="http://www.w3.org/2000/svg">
<g clip-path="url(#clip0_117_916)">
<path d="M10.6715 10.4265C10.4596 10.5185 10.2311 10.566 10.0001 10.566C9.7691 10.566 9.54057 10.5185 9.32868 10.4265L1.18582 6.65505C1.05359 6.58835 0.942476 6.48627 0.864838 6.36015C0.787201 6.23404 0.746094 6.08885 0.746094 5.94076C0.746094 5.79267 0.787201 5.64748 0.864838 5.52137C0.942476 5.39525 1.05359 5.29317 1.18582 5.22647L9.32868 1.42648C9.54057 1.33447 9.7691 1.28699 10.0001 1.28699C10.2311 1.28699 10.4596 1.33447 10.6715 1.42648L18.8144 5.1979C18.9466 5.2646 19.0577 5.36668 19.1354 5.4928C19.213 5.61891 19.2541 5.76409 19.2541 5.91219C19.2541 6.06028 19.213 6.20547 19.1354 6.33158C19.0577 6.4577 18.9466 6.55978 18.8144 6.62647L10.6715 10.4265Z" stroke="white" stroke-linecap="round" stroke-linejoin="round"/>
<path d="M19.2858 11.0693L10.5715 15.0836C10.3854 15.1685 10.1832 15.2124 9.97864 15.2124C9.77408 15.2124 9.5719 15.1685 9.38578 15.0836L0.714355 11.0693" stroke="white" stroke-linecap="round" stroke-linejoin="round"/>
<path d="M19.2858 15.7122L10.5715 19.7264C10.3854 19.8113 10.1832 19.8553 9.97864 19.8553C9.77408 19.8553 9.5719 19.8113 9.38578 19.7264L0.714355 15.7122" stroke="white" stroke-linecap="round" stroke-linejoin="round"/>
</g>
<defs>
<clipPath id="clip0_117_916">
<rect width="20" height="20" fill="white" transform="translate(0 0.569336)"/>
</clipPath>
</defs>
</svg>
