<svg width="20" height="20" viewBox="0 0 20 20" fill="none" xmlns="http://www.w3.org/2000/svg">
<g clip-path="url(#clip0_223_1388)">
<path d="M5.08985 0.268573C5.25588 0.383051 5.40568 0.509367 5.55234 0.647296C5.58914 0.681804 5.58914 0.681804 5.62668 0.717009C6.03174 1.10004 6.4253 1.49515 6.81977 1.88902C6.93868 2.00771 7.05796 2.12604 7.17731 2.24429C7.27089 2.33713 7.36419 2.43024 7.45743 2.52342C7.50124 2.56711 7.54515 2.61071 7.58916 2.6542C7.82166 2.88414 8.04165 3.11893 8.24487 3.37541C8.2625 3.39758 8.28014 3.41974 8.29831 3.44258C8.61978 3.85844 8.7435 4.34433 8.68848 4.8633C8.61273 5.32973 8.43731 5.66599 8.12452 6.01564C8.09586 6.04852 8.06721 6.08141 8.03769 6.11528C7.79389 6.38845 7.53572 6.64744 7.27735 6.90676C7.24254 6.94174 7.20774 6.97673 7.17188 7.01278C6.97495 7.20923 6.77446 7.39852 6.56202 7.57814C6.90059 8.3502 7.34759 9.04249 7.89014 9.68752C7.90703 9.70767 7.92393 9.72783 7.94133 9.74859C8.3543 10.24 8.7883 10.7063 9.24024 11.1621C9.27392 11.1963 9.3076 11.2305 9.34231 11.2657C9.57518 11.4989 9.82041 11.7084 10.0776 11.9141C10.1264 11.955 10.175 11.9962 10.2234 12.0375C10.7772 12.5054 11.3833 12.9189 12.021 13.2642C12.0477 13.2789 12.0745 13.2936 12.102 13.3087C12.2346 13.3798 12.2346 13.3798 12.3811 13.3906C12.4807 13.3514 12.5329 13.3002 12.6076 13.2237C12.636 13.195 12.6643 13.1662 12.6934 13.1367C12.7389 13.0897 12.7389 13.0897 12.7853 13.0419C12.817 13.0097 12.8487 12.9776 12.8814 12.9444C13.017 12.8069 13.1519 12.6688 13.2868 12.5306C13.3855 12.4298 13.4846 12.3293 13.5837 12.2289C13.6134 12.1981 13.6432 12.1674 13.6738 12.1357C13.9485 11.8575 14.2545 11.5898 14.6235 11.4478C14.6609 11.4329 14.6983 11.4181 14.7368 11.4028C15.2055 11.2463 15.7225 11.2927 16.1714 11.4844C16.6138 11.722 16.9498 12.0837 17.3001 12.4361C17.3627 12.4986 17.4253 12.561 17.4879 12.6235C17.6185 12.7538 17.7487 12.8844 17.8788 13.0152C18.0447 13.182 18.2113 13.3481 18.3781 13.514C18.5073 13.6426 18.6362 13.7716 18.7649 13.9007C18.8262 13.9621 18.8875 14.0234 18.949 14.0845C19.5604 14.693 19.5604 14.693 19.7651 15.0781C19.7814 15.1076 19.7977 15.137 19.8145 15.1673C20.0567 15.6216 20.0291 16.1629 19.8861 16.6414C19.6592 17.2576 19.1415 17.7084 18.6836 18.1568C18.597 18.242 18.5105 18.3273 18.4241 18.4127C18.3708 18.4653 18.3174 18.5178 18.2639 18.5702C18.1126 18.7191 17.9701 18.8727 17.8323 19.0342C17.3552 19.5761 16.6117 19.9279 15.898 20C14.8782 20.0492 13.9405 19.909 12.9683 19.6094C12.9369 19.5998 12.9056 19.5902 12.8733 19.5803C11.3013 19.0891 9.78113 18.2433 8.43702 17.3047C8.41488 17.2893 8.39275 17.2739 8.36995 17.258C8.20866 17.1452 8.04902 17.0303 7.89014 16.9141C7.8649 16.8956 7.83966 16.8772 7.81366 16.8582C7.48975 16.6207 7.17593 16.3754 6.87177 16.1131C6.77365 16.0296 6.6739 15.9502 6.57178 15.8716C6.19293 15.572 5.84821 15.2244 5.50733 14.8828C5.44246 14.8188 5.37756 14.7548 5.31263 14.6909C5.25665 14.6354 5.20068 14.58 5.14474 14.5245C5.10687 14.4871 5.06893 14.4496 5.03091 14.4123C4.79607 14.1815 4.57673 13.9442 4.37108 13.6867C4.28676 13.5818 4.19837 13.4841 4.10596 13.3862C3.90359 13.1655 3.7187 12.9346 3.53696 12.6968C3.49478 12.6417 3.45245 12.5866 3.41001 12.5316C3.00298 12.0037 2.6275 11.4579 2.26514 10.8985C2.2488 10.8733 2.23246 10.8481 2.21563 10.8221C2.12437 10.6804 2.03759 10.5362 1.95264 10.3906C1.93471 10.3602 1.91678 10.3297 1.8983 10.2983C0.808418 8.4374 -0.454025 5.85462 0.125172 3.6316C0.289937 3.04331 0.576867 2.59822 0.98798 2.1541C1.01798 2.12168 1.01798 2.12168 1.04859 2.0886C1.29146 1.82784 1.54158 1.57428 1.79319 1.32196C1.8747 1.24007 1.95578 1.15777 2.03687 1.07546C2.76454 0.341917 2.76454 0.341917 3.2417 0.136737C3.28279 0.118609 3.32388 0.100482 3.36621 0.0818052C3.92342 -0.134885 4.58612 -0.0223228 5.08985 0.268573ZM2.4535 2.18509C2.35556 2.28264 2.25722 2.37977 2.15886 2.4769C2.09564 2.53987 2.03244 2.60286 1.96927 2.66588C1.94029 2.69438 1.91132 2.72287 1.88146 2.75223C1.34976 3.28619 1.06379 3.88297 1.05348 4.64388C1.06452 5.90416 1.51547 7.10836 2.03077 8.24221C2.04767 8.27974 2.06457 8.31728 2.08198 8.35596C2.48027 9.23435 2.96182 10.0692 3.51514 10.8594C3.5305 10.8814 3.54586 10.9034 3.56168 10.9261C3.92976 11.4525 4.31294 11.969 4.72608 12.461C4.74273 12.4809 4.75939 12.5009 4.77655 12.5215C4.99519 12.7836 5.21789 13.0408 5.44934 13.2918C5.52455 13.3745 5.59765 13.4581 5.67044 13.5428C5.84111 13.7384 6.02412 13.921 6.20801 14.104C6.24142 14.1376 6.27483 14.1711 6.30925 14.2057C6.48276 14.379 6.65872 14.5466 6.84473 14.7064C6.93975 14.7882 7.03148 14.8734 7.12354 14.9585C7.32061 15.1378 7.52376 15.3051 7.73389 15.4688C7.78639 15.5103 7.83888 15.5518 7.89136 15.5933C8.28547 15.9039 8.68611 16.2022 9.10108 16.4844C9.12654 16.5017 9.15201 16.5191 9.17825 16.5369C10.9324 17.7212 13.5423 19.2925 15.7647 18.9636C16.2212 18.8725 16.5585 18.7391 16.9136 18.4375C16.974 18.3904 16.974 18.3904 17.0356 18.3423C17.1196 18.2675 17.1841 18.2013 17.2549 18.1162C17.3947 17.9548 17.5443 17.805 17.6962 17.6552C17.7214 17.6303 17.7466 17.6054 17.7726 17.5798C17.8782 17.4756 17.9839 17.3715 18.0899 17.2679C18.6774 16.7328 18.6774 16.7328 18.9229 16.0083C18.9244 15.9747 18.926 15.9411 18.9276 15.9065C18.8695 15.5733 18.6701 15.3214 18.4344 15.0906C18.3939 15.0497 18.3939 15.0497 18.3526 15.0081C18.2641 14.9191 18.175 14.8309 18.0858 14.7428C18.0236 14.6807 17.9615 14.6185 17.8994 14.5564C17.7696 14.4267 17.6395 14.2973 17.5091 14.1681C17.3423 14.0029 17.1763 13.837 17.0104 13.6709C16.8824 13.5427 16.754 13.4148 16.6256 13.287C16.5642 13.226 16.5029 13.1648 16.4418 13.1036C16.3561 13.0181 16.2702 12.9329 16.1841 12.8479C16.1591 12.8227 16.1341 12.7976 16.1083 12.7717C15.8776 12.5454 15.661 12.3999 15.3311 12.3789C14.8924 12.3968 14.5923 12.7411 14.3063 13.0335C14.2697 13.0706 14.233 13.1076 14.1963 13.1446C14.0414 13.3011 13.887 13.458 13.7327 13.6151C13.638 13.7115 13.5429 13.8077 13.4477 13.9036C13.3944 13.9576 13.3414 14.0119 13.2884 14.0662C13.1138 14.2421 12.9575 14.3838 12.7339 14.4922C12.7081 14.5051 12.6823 14.518 12.6558 14.5313C12.2557 14.5984 11.9813 14.4527 11.6443 14.264C11.5631 14.2193 11.4809 14.1775 11.3978 14.1362C10.9812 13.9275 10.6078 13.6756 10.2339 13.3985C10.1903 13.3666 10.1467 13.3347 10.1031 13.3028C9.84031 13.1085 9.58588 12.9053 9.33545 12.6953C9.31563 12.6791 9.29581 12.6629 9.27539 12.6461C8.91063 12.3469 8.57501 12.0204 8.2417 11.687C8.22051 11.6659 8.19932 11.6447 8.17749 11.6229C7.94305 11.3884 7.71435 11.1513 7.49952 10.8985C7.46338 10.8575 7.42717 10.8166 7.39087 10.7758C6.72329 10.0162 6.12977 9.19157 5.69806 8.27495C5.64778 8.17024 5.59416 8.06725 5.54052 7.96422C5.4347 7.72962 5.41709 7.44714 5.50412 7.20491C5.60929 7.01185 5.74354 6.87049 5.90726 6.72533C6.18441 6.47596 6.44943 6.21498 6.71339 5.95178C6.79452 5.87103 6.87606 5.79071 6.9576 5.71039C7.01004 5.65821 7.06245 5.606 7.11484 5.55376C7.13885 5.53023 7.16286 5.50671 7.1876 5.48247C7.42709 5.24174 7.61841 4.993 7.63135 4.64357C7.62479 4.28535 7.44808 4.08373 7.21099 3.82973C7.19044 3.8076 7.16988 3.78547 7.1487 3.76267C6.91806 3.51568 6.68063 3.27554 6.44208 3.03621C6.41886 3.01289 6.39565 2.98956 6.37173 2.96552C6.2493 2.84252 6.12677 2.71962 6.00413 2.59682C5.87868 2.47114 5.75359 2.34511 5.62858 2.219C5.53112 2.1208 5.43339 2.02288 5.3356 1.92502C5.28938 1.87868 5.24325 1.83225 5.19723 1.78571C4.70006 1.25397 4.70006 1.25397 4.03516 1.0425C3.37587 1.052 2.88652 1.75309 2.4535 2.18509Z" fill="url(#paint0_linear_223_1388)"/>
</g>
<defs>
<linearGradient id="paint0_linear_223_1388" x1="0.0303465" y1="9.97575" x2="19.9952" y2="9.97816" gradientUnits="userSpaceOnUse">
<stop stop-color="#A93E17"/>
<stop offset="1" stop-color="#15399A"/>
</linearGradient>
<clipPath id="clip0_223_1388">
<rect width="20" height="20" fill="white"/>
</clipPath>
</defs>
</svg>
