<svg width="40" height="40" viewBox="0 0 40 40" fill="none" xmlns="http://www.w3.org/2000/svg">
<path d="M12.8573 37.1429C19.1691 37.1429 24.2859 32.0262 24.2859 25.7143C24.2859 19.4025 19.1691 14.2858 12.8573 14.2858C6.54546 14.2858 1.42871 19.4025 1.42871 25.7143C1.42871 32.0262 6.54546 37.1429 12.8573 37.1429Z" stroke="white" stroke-width="1.5" stroke-linecap="round" stroke-linejoin="round"/>
<path d="M27.1429 37.1429C33.4548 37.1429 38.5715 32.0262 38.5715 25.7143C38.5715 19.4025 33.4548 14.2858 27.1429 14.2858C20.8311 14.2858 15.7144 19.4025 15.7144 25.7143C15.7144 32.0262 20.8311 37.1429 27.1429 37.1429Z" stroke="white" stroke-width="1.5" stroke-linecap="round" stroke-linejoin="round"/>
<path d="M20.0003 25.7143C26.3122 25.7143 31.4289 20.5976 31.4289 14.2857C31.4289 7.97392 26.3122 2.85718 20.0003 2.85718C13.6885 2.85718 8.57178 7.97392 8.57178 14.2857C8.57178 20.5976 13.6885 25.7143 20.0003 25.7143Z" stroke="white" stroke-width="1.5" stroke-linecap="round" stroke-linejoin="round"/>
</svg>
