<svg width="40" height="40" viewBox="0 0 40 40" fill="none" xmlns="http://www.w3.org/2000/svg">
<g clip-path="url(#clip0_135_1708)">
<path d="M21.3431 19.7143C20.9193 19.8983 20.4622 19.9933 20.0002 19.9933C19.5382 19.9933 19.0811 19.8983 18.6574 19.7143L2.37164 12.1714C2.10719 12.038 1.88495 11.8339 1.72968 11.5816C1.5744 11.3294 1.49219 11.039 1.49219 10.7428C1.49219 10.4467 1.5744 10.1563 1.72968 9.90406C1.88495 9.65184 2.10719 9.44766 2.37164 9.31428L18.6574 1.71428C19.0811 1.53026 19.5382 1.4353 20.0002 1.4353C20.4622 1.4353 20.9193 1.53026 21.3431 1.71428L37.6288 9.25713C37.8932 9.39052 38.1155 9.59469 38.2708 9.84692C38.426 10.0991 38.5082 10.3895 38.5082 10.6857C38.5082 10.9819 38.426 11.2723 38.2708 11.5245C38.1155 11.7767 37.8932 11.9809 37.6288 12.1143L21.3431 19.7143Z" stroke="white" stroke-width="1.5" stroke-linecap="round" stroke-linejoin="round"/>
<path d="M38.5716 21L21.143 29.0286C20.7708 29.1984 20.3664 29.2862 19.9573 29.2862C19.5482 29.2862 19.1438 29.1984 18.7716 29.0286L1.42871 21" stroke="white" stroke-width="1.5" stroke-linecap="round" stroke-linejoin="round"/>
<path d="M38.5716 30.2858L21.143 38.3143C20.7708 38.4841 20.3664 38.572 19.9573 38.572C19.5482 38.572 19.1438 38.4841 18.7716 38.3143L1.42871 30.2858" stroke="white" stroke-width="1.5" stroke-linecap="round" stroke-linejoin="round"/>
</g>
<defs>
<clipPath id="clip0_135_1708">
<rect width="40" height="40" fill="white"/>
</clipPath>
</defs>
</svg>
