<svg width="31" height="31" viewBox="0 0 31 31" fill="none" xmlns="http://www.w3.org/2000/svg">
<g clip-path="url(#clip0_117_1414)">
<path d="M27.2949 3.28369L19.9878 10.5908" stroke="white" stroke-width="1.5" stroke-linecap="round" stroke-linejoin="round"/>
<path d="M3.72363 3.28369L11.0308 10.5908" stroke="white" stroke-width="1.5" stroke-linecap="round" stroke-linejoin="round"/>
<path d="M3.72363 26.8552L11.0308 19.5481" stroke="white" stroke-width="1.5" stroke-linecap="round" stroke-linejoin="round"/>
<path d="M27.2949 26.8552L19.9878 19.5481" stroke="white" stroke-width="1.5" stroke-linecap="round" stroke-linejoin="round"/>
<path d="M15.5091 28.998C23.2017 28.998 29.4377 22.762 29.4377 15.0694C29.4377 7.3769 23.2017 1.14087 15.5091 1.14087C7.8166 1.14087 1.58057 7.3769 1.58057 15.0694C1.58057 22.762 7.8166 28.998 15.5091 28.998Z" stroke="white" stroke-width="1.5" stroke-linecap="round" stroke-linejoin="round"/>
<path d="M15.5089 21.3909C19.0002 21.3909 21.8304 18.5607 21.8304 15.0695C21.8304 11.5782 19.0002 8.74805 15.5089 8.74805C12.0177 8.74805 9.1875 11.5782 9.1875 15.0695C9.1875 18.5607 12.0177 21.3909 15.5089 21.3909Z" stroke="white" stroke-width="1.5" stroke-linecap="round" stroke-linejoin="round"/>
</g>
<defs>
<clipPath id="clip0_117_1414">
<rect width="30" height="30" fill="white" transform="translate(0.509277 0.0693359)"/>
</clipPath>
</defs>
</svg>
