<svg width="20" height="20" viewBox="0 0 20 20" fill="none" xmlns="http://www.w3.org/2000/svg">
<g clip-path="url(#clip0_223_1393)">
<path d="M1.65464 2.96337C1.68382 2.96327 1.713 2.96316 1.74306 2.96305C1.84139 2.96275 1.93971 2.96273 2.03803 2.96271C2.10902 2.96255 2.18001 2.96238 2.251 2.96219C2.44653 2.96172 2.64205 2.9615 2.83757 2.96132C3.04828 2.96109 3.25899 2.96064 3.46971 2.96022C3.97884 2.95926 4.48797 2.95869 4.9971 2.95819C5.14089 2.95804 5.28469 2.95789 5.42849 2.95773C6.32139 2.95674 7.21429 2.95588 8.10719 2.95539C8.31404 2.95528 8.5209 2.95516 8.72775 2.95505C8.77917 2.95502 8.83058 2.95499 8.88355 2.95496C9.71627 2.95446 10.549 2.95316 11.3817 2.95154C12.2366 2.94988 13.0915 2.94896 13.9464 2.94876C14.4264 2.94862 14.9064 2.94816 15.3864 2.94688C15.7952 2.94578 16.204 2.94535 16.6129 2.94579C16.8214 2.94599 17.0299 2.94588 17.2384 2.94491C17.4296 2.94403 17.6207 2.94406 17.8118 2.9448C17.8807 2.94491 17.9496 2.9447 18.0186 2.94411C18.6349 2.93918 19.0988 3.06522 19.5575 3.49927C19.817 3.7742 20.0043 4.15055 20.0054 4.53063C20.0056 4.57009 20.0058 4.60955 20.006 4.6502C20.006 4.71512 20.006 4.71512 20.006 4.78134C20.0062 4.82737 20.0064 4.87341 20.0065 4.92084C20.007 5.04866 20.0072 5.17649 20.0074 5.30431C20.0076 5.44217 20.0081 5.58003 20.0085 5.71789C20.0095 6.0509 20.01 6.3839 20.0105 6.71691C20.0107 6.81102 20.0108 6.90512 20.011 6.99923C20.012 7.58397 20.0128 8.1687 20.0133 8.75344C20.0134 8.88886 20.0136 9.02428 20.0137 9.1597C20.0137 9.19335 20.0137 9.22701 20.0138 9.26169C20.0143 9.80644 20.0156 10.3512 20.0172 10.896C20.0188 11.4556 20.0198 12.0153 20.02 12.575C20.0201 12.889 20.0206 13.2031 20.0218 13.5172C20.0229 13.7848 20.0234 14.0524 20.0229 14.32C20.0227 14.4563 20.0228 14.5927 20.0238 14.7291C20.0247 14.8774 20.0244 15.0257 20.0238 15.174C20.0243 15.2164 20.0248 15.2589 20.0254 15.3027C20.0201 15.8169 19.8175 16.221 19.4695 16.5887C19.1569 16.8838 18.7691 17.0373 18.3454 17.0366C18.3162 17.0367 18.287 17.0368 18.2569 17.0369C18.1586 17.0372 18.0603 17.0372 17.962 17.0372C17.891 17.0374 17.82 17.0376 17.749 17.0378C17.5535 17.0382 17.358 17.0384 17.1624 17.0386C16.9517 17.0389 16.741 17.0393 16.5303 17.0397C16.0212 17.0407 15.512 17.0413 15.0029 17.0418C14.8591 17.0419 14.7153 17.0421 14.5715 17.0422C13.6786 17.0432 12.7857 17.0441 11.8928 17.0445C11.686 17.0447 11.4791 17.0448 11.2723 17.0449C11.1951 17.0449 11.1951 17.0449 11.1165 17.045C10.2837 17.0455 9.45102 17.0468 8.6183 17.0484C7.76341 17.0501 6.90853 17.051 6.05364 17.0512C5.57363 17.0513 5.09363 17.0518 4.61363 17.0531C4.20479 17.0542 3.79596 17.0546 3.38713 17.0542C3.1786 17.0539 2.97008 17.0541 2.76156 17.055C2.57044 17.0559 2.37934 17.0559 2.18823 17.0551C2.1193 17.055 2.05037 17.0552 1.98144 17.0558C1.3651 17.0608 0.901203 16.9347 0.442507 16.5007C0.182964 16.2257 -0.00433405 15.8494 -0.00534946 15.4693C-0.00554768 15.4299 -0.00574589 15.3904 -0.00595012 15.3497C-0.00596957 15.3065 -0.0059891 15.2632 -0.00600913 15.2186C-0.00618031 15.1726 -0.00635147 15.1265 -0.00652784 15.0791C-0.00695977 14.9513 -0.00721579 14.8235 -0.00739434 14.6956C-0.00762725 14.5578 -0.00808068 14.4199 -0.00849941 14.2821C-0.00945692 13.949 -0.0100287 13.616 -0.010533 13.283C-0.010678 13.1889 -0.0108332 13.0948 -0.0109921 13.0007C-0.0119781 12.416 -0.0128392 11.8312 -0.0133252 11.2465C-0.0134396 11.1111 -0.0135554 10.9757 -0.0136731 10.8402C-0.0137022 10.8066 -0.0137313 10.7729 -0.0137613 10.7383C-0.0142552 10.1935 -0.0155526 9.64874 -0.017181 9.10399C-0.0188402 8.54432 -0.0197589 7.98465 -0.0199627 7.42497C-0.0200958 7.11089 -0.0205522 6.79682 -0.0218418 6.48275C-0.0229387 6.21515 -0.0233639 5.94757 -0.0229279 5.67998C-0.0227261 5.5436 -0.0228328 5.40724 -0.0238054 5.27086C-0.0246944 5.12255 -0.0243665 4.97429 -0.0237475 4.82598C-0.0242897 4.78349 -0.0248319 4.741 -0.0253906 4.69722C-0.0201318 4.18308 0.182554 3.77899 0.530551 3.41123C0.843151 3.11612 1.23095 2.96264 1.65464 2.96337ZM2.07032 4.1406C2.25439 4.35708 2.25439 4.35708 2.44767 4.56215C2.4736 4.58823 2.49953 4.61431 2.52624 4.64117C2.56788 4.68276 2.56788 4.68276 2.61036 4.72519C2.64041 4.75535 2.67046 4.78552 2.70142 4.8166C2.80163 4.91715 2.90198 5.01756 3.00233 5.11797C3.07441 5.19023 3.14648 5.26249 3.21854 5.33476C3.4139 5.53065 3.6094 5.72639 3.80494 5.9221C3.92707 6.04435 4.04918 6.16662 4.17128 6.2889C4.50957 6.62765 4.84788 6.96637 5.18634 7.30496C5.20796 7.32659 5.22958 7.34822 5.25185 7.3705C5.27352 7.39218 5.29519 7.41385 5.31751 7.43619C5.36142 7.48011 5.40533 7.52403 5.44923 7.56796C5.47101 7.58975 5.49279 7.61153 5.51523 7.63398C5.86868 7.98759 6.22187 8.34146 6.57494 8.69544C6.9377 9.05913 7.30068 9.4226 7.66388 9.78584C7.86771 9.9897 8.07143 10.1937 8.27492 10.3978C8.4661 10.5897 8.65757 10.7812 8.84925 10.9726C8.91963 11.0429 8.98991 11.1134 9.06009 11.1839C9.1557 11.28 9.25167 11.3758 9.34773 11.4714C9.37558 11.4996 9.40342 11.5278 9.43211 11.5568C9.63727 11.7599 9.77535 11.8422 10.0719 11.8501C10.3461 11.804 10.5186 11.6072 10.705 11.4187C10.736 11.3878 10.767 11.357 10.7989 11.3252C10.9027 11.2217 11.006 11.1178 11.1093 11.014C11.1836 10.9397 11.2579 10.8655 11.3322 10.7913C11.5131 10.6107 11.6936 10.4297 11.874 10.2487C12.084 10.038 12.2944 9.82761 12.5047 9.61724C12.8798 9.24206 13.2547 8.86661 13.6293 8.49099C13.9932 8.12621 14.3573 7.7616 14.7215 7.3972C14.744 7.37474 14.7664 7.35227 14.7896 7.32912C14.8348 7.28387 14.8801 7.23861 14.9253 7.19335C14.9476 7.17103 14.9699 7.14871 14.9929 7.12571C15.0152 7.10345 15.0374 7.08118 15.0604 7.05824C15.4072 6.71126 15.7539 6.36414 16.1005 6.01699C16.2263 5.89102 16.3522 5.76506 16.478 5.63912C16.6775 5.43949 16.8768 5.2398 17.0761 5.03998C17.1672 4.94863 17.2583 4.85732 17.3495 4.76608C17.4481 4.6674 17.5466 4.56861 17.6451 4.46978C17.6742 4.44064 17.7034 4.4115 17.7335 4.38147C17.7726 4.34207 17.7726 4.34207 17.8126 4.30188C17.8354 4.27905 17.8582 4.25623 17.8816 4.23272C17.9341 4.18677 17.9341 4.18677 17.9297 4.1406C12.6961 4.1406 7.4625 4.1406 2.07032 4.1406ZM1.17188 4.99997C1.17188 8.29997 1.17188 11.6 1.17188 15C1.34173 14.8544 1.50074 14.715 1.65764 14.558C1.67717 14.5385 1.69671 14.519 1.71683 14.4989C1.78139 14.4344 1.84582 14.3697 1.91024 14.3051C1.95684 14.2585 2.00345 14.2119 2.05006 14.1653C2.17595 14.0394 2.30172 13.9134 2.42747 13.7874C2.55914 13.6555 2.69092 13.5237 2.82269 13.3919C3.07192 13.1425 3.32105 12.8931 3.57014 12.6436C3.85384 12.3594 4.13766 12.0754 4.42148 11.7914C5.00507 11.2074 5.58852 10.6233 6.17188 10.039C6.10985 9.88835 6.01374 9.79304 5.89925 9.67862C5.86928 9.64851 5.86928 9.64851 5.83871 9.6178C5.77175 9.55062 5.70451 9.48372 5.63728 9.41682C5.58921 9.36871 5.54115 9.32058 5.49311 9.27243C5.36263 9.14176 5.23191 9.01134 5.10114 8.88096C4.96449 8.74465 4.82804 8.60814 4.69158 8.47166C4.46246 8.24258 4.2332 8.01366 4.00384 7.78483C3.73829 7.51989 3.47293 7.25475 3.2077 6.98948C2.95288 6.73464 2.69795 6.47991 2.44296 6.22524C2.33426 6.11668 2.2256 6.00809 2.11696 5.89947C1.98922 5.77177 1.86138 5.64417 1.73347 5.51665C1.6864 5.46969 1.63936 5.4227 1.59235 5.37568C1.52849 5.31179 1.4645 5.24802 1.40048 5.18429C1.36461 5.14849 1.32874 5.11268 1.29179 5.07579C1.22466 4.99552 1.22466 4.99552 1.17188 4.99997ZM18.6542 5.12981C18.6254 5.15877 18.6254 5.15877 18.596 5.18831C18.5757 5.20857 18.5554 5.22882 18.5345 5.2497C18.466 5.31816 18.3976 5.38677 18.3292 5.45537C18.2804 5.50425 18.2315 5.55313 18.1826 5.602C18.0494 5.73515 17.9164 5.86843 17.7833 6.00173C17.6445 6.14084 17.5055 6.27984 17.3665 6.41885C17.1032 6.68232 16.8399 6.94588 16.5767 7.20949C16.2772 7.50949 15.9775 7.80939 15.6778 8.10928C15.0611 8.72636 14.4446 9.34359 13.8281 9.96091C13.8902 10.1116 13.9863 10.2069 14.1008 10.3213C14.1307 10.3514 14.1307 10.3514 14.1613 10.3821C14.2283 10.4493 14.2955 10.5162 14.3627 10.5831C14.4108 10.6312 14.4589 10.6794 14.5069 10.7275C14.6374 10.8582 14.7681 10.9886 14.8989 11.119C15.0355 11.2553 15.172 11.3918 15.3084 11.5283C15.5375 11.7574 15.7668 11.9863 15.9962 12.2151C16.2617 12.48 16.5271 12.7452 16.7923 13.0105C17.0471 13.2653 17.3021 13.52 17.557 13.7747C17.6657 13.8833 17.7744 13.9918 17.883 14.1005C18.0108 14.2282 18.1386 14.3558 18.2665 14.4833C18.3136 14.5302 18.3606 14.5772 18.4076 14.6243C18.4715 14.6882 18.5355 14.7519 18.5995 14.8157C18.6354 14.8515 18.6713 14.8873 18.7082 14.9242C18.7753 15.0044 18.7753 15.0044 18.8281 15C18.8281 11.7 18.8281 8.39997 18.8281 4.99997C18.7503 4.99997 18.7061 5.07809 18.6542 5.12981ZM6.89637 10.989C6.86758 11.0179 6.86758 11.0179 6.83822 11.0474C6.81793 11.0676 6.79764 11.0879 6.77673 11.1087C6.7082 11.1771 6.63981 11.2456 6.57142 11.3141C6.52255 11.3629 6.47366 11.4118 6.42478 11.4606C6.2916 11.5936 6.15856 11.7267 6.02553 11.8598C5.88666 11.9988 5.74768 12.1377 5.60872 12.2766C5.37533 12.5099 5.14203 12.7433 4.90876 12.9767C4.63864 13.2471 4.36838 13.5173 4.09804 13.7874C3.86642 14.0188 3.63487 14.2504 3.40338 14.482C3.26492 14.6205 3.12643 14.759 2.98787 14.8974C2.85764 15.0275 2.72751 15.1577 2.59745 15.288C2.54955 15.336 2.50161 15.3839 2.45364 15.4318C2.38847 15.4968 2.32341 15.562 2.25839 15.6272C2.23911 15.6464 2.21984 15.6656 2.19998 15.6854C2.10931 15.7595 2.10931 15.7595 2.07032 15.8593C7.30391 15.8593 12.5375 15.8593 17.9297 15.8593C17.7841 15.6895 17.6447 15.5305 17.4877 15.3736C17.4584 15.3443 17.4584 15.3443 17.4286 15.3144C17.3641 15.2498 17.2995 15.1854 17.2348 15.121C17.1882 15.0744 17.1416 15.0278 17.095 14.9812C16.9691 14.8553 16.8431 14.7295 16.7171 14.6038C16.5852 14.4721 16.4534 14.3403 16.3216 14.2085C16.0722 13.9593 15.8228 13.7102 15.5733 13.4611C15.2892 13.1774 15.0051 12.8936 14.7211 12.6097C14.1371 12.0262 13.553 11.4427 12.9688 10.8593C12.9255 10.8962 12.8822 10.933 12.839 10.9699C12.8149 10.9904 12.7908 11.011 12.766 11.0321C12.6667 11.1187 12.5735 11.2104 12.4805 11.3037C12.4462 11.3378 12.412 11.372 12.3767 11.4071C12.293 11.493 12.214 11.5819 12.1356 11.6726C11.6265 12.259 11.0754 12.8786 10.2734 13.0078C9.92932 13.0299 9.62121 13.0102 9.29688 12.8906C9.26626 12.88 9.23565 12.8694 9.2041 12.8586C8.84968 12.7105 8.58888 12.4139 8.32032 12.1484C8.27337 12.1025 8.22642 12.0567 8.17948 12.0108C7.98263 11.8171 7.79191 11.6215 7.61307 11.411C7.5093 11.2948 7.39998 11.1845 7.29004 11.0742C7.26907 11.053 7.24809 11.0319 7.22648 11.0101C7.06201 10.8356 7.06201 10.8356 6.89637 10.989Z" fill="url(#paint0_linear_223_1393)"/>
</g>
<defs>
<linearGradient id="paint0_linear_223_1393" x1="0.0255528" y1="9.9905" x2="20.0254" y2="9.99393" gradientUnits="userSpaceOnUse">
<stop stop-color="#A93E17"/>
<stop offset="1" stop-color="#15399A"/>
</linearGradient>
<clipPath id="clip0_223_1393">
<rect width="20" height="20" fill="white"/>
</clipPath>
</defs>
</svg>
