<svg width="20" height="21" viewBox="0 0 20 21" fill="none" xmlns="http://www.w3.org/2000/svg">
<path d="M6.42864 19.1407C9.58455 19.1407 12.1429 16.5824 12.1429 13.4264C12.1429 10.2705 9.58455 7.71216 6.42864 7.71216C3.27273 7.71216 0.714355 10.2705 0.714355 13.4264C0.714355 16.5824 3.27273 19.1407 6.42864 19.1407Z" stroke="white" stroke-linecap="round" stroke-linejoin="round"/>
<path d="M13.5717 19.1407C16.7276 19.1407 19.286 16.5824 19.286 13.4264C19.286 10.2705 16.7276 7.71216 13.5717 7.71216C10.4158 7.71216 7.85742 10.2705 7.85742 13.4264C7.85742 16.5824 10.4158 19.1407 13.5717 19.1407Z" stroke="white" stroke-linecap="round" stroke-linejoin="round"/>
<path d="M9.99993 13.4265C13.1558 13.4265 15.7142 10.8681 15.7142 7.71221C15.7142 4.5563 13.1558 1.99792 9.99993 1.99792C6.84402 1.99792 4.28564 4.5563 4.28564 7.71221C4.28564 10.8681 6.84402 13.4265 9.99993 13.4265Z" stroke="white" stroke-linecap="round" stroke-linejoin="round"/>
</svg>
