<svg width="30" height="30" viewBox="0 0 30 30" fill="none" xmlns="http://www.w3.org/2000/svg">
<g clip-path="url(#clip0_246_162)">
<path d="M18.771 27.8572C20.0906 28.7085 21.6631 29.0795 23.2241 28.9078C24.7851 28.7361 26.2394 28.0322 27.3424 26.9143L28.3067 25.9715C28.7295 25.5391 28.9662 24.9583 28.9662 24.3536C28.9662 23.7489 28.7295 23.1682 28.3067 22.7357L24.2138 18.6858C23.785 18.2643 23.2079 18.0282 22.6067 18.0282C22.0055 18.0282 21.4283 18.2643 20.9996 18.6858V18.6858C20.5671 19.1085 19.9864 19.3452 19.3817 19.3452C18.777 19.3452 18.1963 19.1085 17.7638 18.6858L11.3353 12.2572C11.1208 12.0458 10.9505 11.794 10.8343 11.5162C10.718 11.2385 10.6582 10.9404 10.6582 10.6393C10.6582 10.3382 10.718 10.0402 10.8343 9.76241C10.9505 9.48467 11.1208 9.2328 11.3353 9.02147V9.02147C11.7567 8.59267 11.9928 8.01552 11.9928 7.41432C11.9928 6.81312 11.7567 6.23597 11.3353 5.80718L7.26384 1.73575C6.83143 1.313 6.25072 1.07629 5.64598 1.07629C5.04125 1.07629 4.46054 1.313 4.02813 1.73575L3.08527 2.70004C1.96744 3.80306 1.26349 5.25733 1.09178 6.81832C0.920067 8.37932 1.29107 9.95184 2.14241 11.2715C6.57822 17.8087 12.2223 23.4383 18.771 27.8572V27.8572Z" stroke="white" stroke-width="1.5" stroke-linecap="round" stroke-linejoin="round"/>
</g>
<defs>
<clipPath id="clip0_246_162">
<rect width="30" height="30" fill="white"/>
</clipPath>
</defs>
</svg>
