<svg width="20" height="21" viewBox="0 0 20 21" fill="none" xmlns="http://www.w3.org/2000/svg">
<path d="M17.6142 9.72078L15.3426 9.07162C14.3196 8.78321 13.3877 8.23709 12.6362 7.48553C11.8846 6.73397 11.3385 5.80211 11.0501 4.77912L10.4009 2.50745C10.3683 2.42797 10.3127 2.35999 10.2413 2.31215C10.17 2.26431 10.086 2.23877 10.0001 2.23877C9.91415 2.23877 9.83016 2.26431 9.75879 2.31215C9.68742 2.35999 9.63188 2.42797 9.59924 2.50745L8.95007 4.77912C8.66166 5.80211 8.11555 6.73397 7.36398 7.48553C6.61242 8.23709 5.68056 8.78321 4.65757 9.07162L2.3859 9.72078C2.29868 9.74554 2.22191 9.79807 2.16725 9.87041C2.11258 9.94275 2.08301 10.0309 2.08301 10.1216C2.08301 10.2123 2.11258 10.3005 2.16725 10.3728C2.22191 10.4452 2.29868 10.4977 2.3859 10.5225L4.65757 11.1716C5.68056 11.46 6.61242 12.0061 7.36398 12.7577C8.11555 13.5093 8.66166 14.4411 8.95007 15.4641L9.59924 17.7358C9.62399 17.823 9.67653 17.8998 9.74887 17.9544C9.8212 18.0091 9.9094 18.0387 10.0001 18.0387C10.0907 18.0387 10.1789 18.0091 10.2513 17.9544C10.3236 17.8998 10.3761 17.823 10.4009 17.7358L11.0501 15.4641C11.3385 14.4411 11.8846 13.5093 12.6362 12.7577C13.3877 12.0061 14.3196 11.46 15.3426 11.1716L17.6142 10.5225C17.7015 10.4977 17.7782 10.4452 17.8329 10.3728C17.8876 10.3005 17.9171 10.2123 17.9171 10.1216C17.9171 10.0309 17.8876 9.94275 17.8329 9.87041C17.7782 9.79807 17.7015 9.74554 17.6142 9.72078Z" fill="url(#paint0_linear_117_647)"/>
<defs>
<linearGradient id="paint0_linear_117_647" x1="2.12324" y1="10.1281" x2="17.9171" y2="10.13" gradientUnits="userSpaceOnUse">
<stop stop-color="#A93E17"/>
<stop offset="1" stop-color="#15399A"/>
</linearGradient>
</defs>
</svg>
