<svg width="25" height="25" viewBox="0 0 25 25" fill="none" xmlns="http://www.w3.org/2000/svg">
<path fill-rule="evenodd" clip-rule="evenodd" d="M5.27153 15.8036C5.27153 17.258 4.09872 18.4318 2.64553 18.4318C1.19235 18.4318 0.0195312 17.254 0.0195312 15.8036C0.0195312 14.3532 1.19235 13.1755 2.64553 13.1755H5.27153V15.8036ZM6.58256 15.8036C6.58256 14.3493 7.75538 13.1755 9.20856 13.1755C10.6617 13.1755 11.8346 14.3493 11.8346 15.8036V22.3719C11.8346 23.8263 10.6617 25 9.20856 25C7.75538 25 6.58256 23.8263 6.58256 22.3719V15.8036Z" fill="#E01E5A"/>
<path fill-rule="evenodd" clip-rule="evenodd" d="M9.20877 5.25621C7.75559 5.25621 6.58277 4.08246 6.58277 2.62811C6.58277 1.17376 7.75559 0 9.20877 0C10.662 0 11.8348 1.17376 11.8348 2.62811V5.25621H9.20877ZM9.20877 6.58805C10.662 6.58805 11.8348 7.76181 11.8348 9.21616C11.8348 10.6705 10.662 11.8443 9.20877 11.8443H2.626C1.17282 11.8443 0 10.6666 0 9.21616C0 7.76576 1.17282 6.58805 2.626 6.58805H9.20877Z" fill="#36C5F0"/>
<path fill-rule="evenodd" clip-rule="evenodd" d="M19.7271 9.21616C19.7271 7.76181 20.8999 6.58805 22.3531 6.58805C23.8063 6.58805 24.9791 7.76181 24.9791 9.21616C24.9791 10.6705 23.8063 11.8443 22.3531 11.8443H19.7271V9.21616ZM18.4161 9.21616C18.4161 10.6705 17.2432 11.8443 15.7901 11.8443C14.3369 11.8443 13.1641 10.6705 13.1641 9.21616V2.62811C13.1641 1.17376 14.3369 0 15.7901 0C17.2432 0 18.4161 1.17376 18.4161 2.62811V9.21616Z" fill="#2EB67D"/>
<path fill-rule="evenodd" clip-rule="evenodd" d="M15.7901 19.7438C17.2432 19.7438 18.4161 20.9176 18.4161 22.3719C18.4161 23.8263 17.2432 25 15.7901 25C14.3369 25 13.1641 23.8263 13.1641 22.3719V19.7438H15.7901ZM15.7901 18.4318C14.3369 18.4318 13.1641 17.258 13.1641 15.8036C13.1641 14.3493 14.3369 13.1755 15.7901 13.1755H22.3728C23.826 13.1755 24.9988 14.3493 24.9988 15.8036C24.9988 17.258 23.826 18.4318 22.3728 18.4318H15.7901Z" fill="#ECB22E"/>
</svg>
