<svg width="31" height="30" viewBox="0 0 31 30" fill="none" xmlns="http://www.w3.org/2000/svg">
<path d="M5.49302 10.2051L15.4509 0.190854C15.5748 0.0685328 15.7414 0 15.915 0C16.0886 0 16.2553 0.0685328 16.3792 0.190854L30.7252 14.703C30.8469 14.8275 30.915 14.9951 30.915 15.1697C30.915 15.3443 30.8469 15.5119 30.7252 15.6365L30.6409 15.7214C30.0685 16.2923 29.2951 16.6126 28.4889 16.6126C27.6828 16.6126 26.9094 16.2923 26.337 15.7214L16.2104 5.53742C16.0865 5.4151 15.9198 5.34657 15.7462 5.34657C15.5726 5.34657 15.406 5.4151 15.2821 5.53742L9.62806 11.2235C9.05574 11.7944 8.28227 12.1147 7.47615 12.1147C6.67003 12.1147 5.89656 11.7944 5.32424 11.2235C5.26592 11.053 5.25082 10.8706 5.28029 10.6927C5.30976 10.5149 5.38288 10.3473 5.49302 10.2051Z" fill="#A7AABB"/>
<path d="M26.4205 19.7947L16.4626 29.8089C16.3387 29.9312 16.1721 29.9998 15.9985 29.9998C15.8248 29.9998 15.6582 29.9312 15.5343 29.8089L1.10384 15.2968C0.98221 15.1722 0.914062 15.0046 0.914062 14.8301C0.914062 14.6555 0.98221 14.4879 1.10384 14.3633C1.67617 13.7924 2.44963 13.472 3.25576 13.472C4.06188 13.472 4.83534 13.7924 5.40767 14.3633L15.4499 24.4624C15.5738 24.5847 15.7405 24.6532 15.9141 24.6532C16.0877 24.6532 16.2543 24.5847 16.3782 24.4624L22.0322 18.7763C22.6046 18.2054 23.378 17.8851 24.1842 17.8851C24.9903 17.8851 25.7637 18.2054 26.3361 18.7763C26.4106 18.8359 26.4723 18.9101 26.5172 18.9945C26.5622 19.079 26.5894 19.1717 26.5973 19.2672C26.6053 19.3626 26.5936 19.4586 26.5632 19.5494C26.5328 19.6401 26.4842 19.7236 26.4205 19.7947Z" fill="#A7AABB"/>
<path d="M16.9699 14.703L14.5226 12.2419C14.1964 11.8823 14.0156 11.4131 14.0156 10.9264C14.0156 10.4397 14.1964 9.97059 14.5226 9.61101L14.607 9.52615C14.7742 9.34541 14.9766 9.20125 15.2016 9.10269C15.4267 9.00412 15.6695 8.95325 15.915 8.95325C16.1605 8.95325 16.4033 9.00412 16.6283 9.10269C16.8534 9.20125 17.0558 9.34541 17.223 9.52615L22.2863 14.6181C22.408 14.7427 22.4761 14.9103 22.4761 15.0849C22.4761 15.2595 22.408 15.4271 22.2863 15.5516L17.3918 20.4739C17.2246 20.6546 17.0222 20.7988 16.7971 20.8973C16.5721 20.9959 16.3292 21.0468 16.0838 21.0468C15.8383 21.0468 15.5955 20.9959 15.3704 20.8973C15.1454 20.7988 14.9429 20.6546 14.7757 20.4739C14.596 20.3057 14.4527 20.1022 14.3547 19.8758C14.2567 19.6495 14.2061 19.4053 14.2061 19.1585C14.2061 18.9116 14.2567 18.6674 14.3547 18.4411C14.4527 18.2148 14.596 18.0112 14.7757 17.843L17.0542 15.5516C17.1427 15.4232 17.1828 15.2672 17.1674 15.1117C17.1519 14.9562 17.0819 14.8113 16.9699 14.703Z" fill="#A7AABB"/>
<path d="M13.9317 14.4482L13.0878 13.5995C12.9207 13.4188 12.7182 13.2746 12.4932 13.1761C12.2681 13.0775 12.0253 13.0266 11.7798 13.0266C11.5344 13.0266 11.2915 13.0775 11.0665 13.1761C10.8414 13.2746 10.639 13.4188 10.4718 13.5995C10.1456 13.9591 9.96484 14.4282 9.96484 14.9149C9.96484 15.4016 10.1456 15.8708 10.4718 16.2304C10.639 16.4111 10.8414 16.5553 11.0665 16.6538C11.2915 16.7524 11.5344 16.8033 11.7798 16.8033C12.0253 16.8033 12.2681 16.7524 12.4932 16.6538C12.7182 16.5553 12.9207 16.4111 13.0878 16.2304L13.9317 15.3817C14.0534 15.2571 14.1215 15.0895 14.1215 14.9149C14.1215 14.7403 14.0534 14.5727 13.9317 14.4482Z" fill="#A7AABB"/>
</svg>
