<svg width="30" height="28" viewBox="0 0 30 28" fill="none" xmlns="http://www.w3.org/2000/svg">
<path d="M9.78316 4.23538H26.3793L26.6156 3.18108C26.961 1.5451 25.7249 0 24.0525 0H7.92905C5.83863 0 4.03905 1.4542 3.58461 3.4901L0.0581555 19.7773C-0.287212 21.4132 0.948853 22.9584 2.6212 22.9584H3.60279L7.20196 6.30762C7.47462 5.1079 8.5471 4.23538 9.78316 4.23538Z" fill="#00CDFA"/>
<path d="M27.3626 4.23645H26.381L22.7817 20.8871C22.5273 22.0868 21.4548 22.9594 20.2188 22.9594H3.62259L3.38628 24.0137C3.04091 25.6496 4.27699 27.1948 5.94932 27.1948H22.0728C24.1633 27.1948 25.9628 25.7405 26.4173 23.7047L29.9438 7.43571C30.2891 5.78155 29.0349 4.23645 27.3626 4.23645Z" fill="url(#paint0_linear_48_230)"/>
<path d="M22.7803 20.8871L26.3794 4.23645H9.7833C8.54722 4.23645 7.47475 5.0908 7.22025 6.3087L3.62109 22.9594H20.2173C21.4533 22.9594 22.5076 22.0868 22.7803 20.8871Z" fill="#3A00FF"/>
<path d="M9.01739 16.6054L7.81641 10.3616H9.69977L10.2798 14.258L12.1837 10.3616H13.4528L14.1967 14.258L15.9435 10.3616H17.8269L14.7766 16.6054H13.2004L12.4497 12.9478L10.6142 16.6054H9.01739Z" fill="white"/>
<path d="M17.168 15.5949L18.1506 14.4554C18.5941 15.0012 19.1537 15.281 19.8429 15.281C20.2864 15.281 20.6753 15.0968 20.7368 14.7897C20.7573 14.6054 20.6344 14.4486 20.3478 14.312C20.2796 14.2779 20.1295 14.2233 19.8906 14.1415C19.4198 13.9572 19.2151 13.889 18.8057 13.6296C18.2325 13.2748 17.9595 12.7836 18.055 11.9374C18.2393 10.7841 19.2969 10.1427 20.6344 10.1427C21.5488 10.1427 22.2994 10.4429 22.9067 11.0366L21.9377 12.1694C21.5352 11.7941 21.0712 11.6098 20.5457 11.6098C20.1227 11.6098 19.8702 11.7326 19.8156 11.9987C19.7678 12.2171 19.8838 12.4013 20.1568 12.5242C20.2455 12.572 20.4298 12.647 20.7027 12.7493C20.9756 12.8518 21.2076 12.9404 21.3987 13.0496C22.0128 13.3089 22.7362 13.9163 22.5178 14.8443C22.4155 15.4516 22.1084 15.9293 21.5897 16.2704C21.078 16.6116 20.457 16.7823 19.761 16.7823C18.6418 16.7755 17.7753 16.3864 17.168 15.5949Z" fill="white"/>
<defs>
<linearGradient id="paint0_linear_48_230" x1="3.32777" y1="15.7182" x2="29.9946" y2="15.7182" gradientUnits="userSpaceOnUse">
<stop stop-color="#FFB3FF"/>
<stop offset="0.5335" stop-color="#FF76DF"/>
<stop offset="1" stop-color="#C239C6"/>
</linearGradient>
</defs>
</svg>
