<svg width="26" height="26" viewBox="0 0 26 26" fill="none" xmlns="http://www.w3.org/2000/svg">
<path fill-rule="evenodd" clip-rule="evenodd" d="M1.54297 8.03433C1.54297 4.44892 4.38672 1.54163 7.89505 1.54163H9.6388C10.3263 1.54163 10.8836 2.11142 10.8836 2.81454V3.96038C10.8836 4.6635 10.3263 5.23329 9.6388 5.23329H7.89505C6.45026 5.23329 4.90547 6.55829 4.90547 8.03538V9.81663C4.90547 10.5198 4.34818 11.0906 3.66068 11.0906H2.7888C2.1013 11.0906 1.54297 10.5198 1.54297 9.81663V8.03538V8.03433ZM24.4596 17.9656C24.4596 21.551 21.6159 24.4583 18.1076 24.4583H16.3638C15.6763 24.4583 15.119 23.8885 15.119 23.1854V22.0395C15.119 21.3364 15.6763 20.7656 16.3638 20.7656H18.1076C19.5523 20.7656 21.0971 19.4427 21.0971 17.9656V16.1833C21.0971 15.4802 21.6544 14.9093 22.3419 14.9093H23.2138C23.9013 14.9093 24.4596 15.4791 24.4596 16.1833V17.9656ZM18.1076 1.54163C21.6159 1.54163 24.4596 4.44788 24.4596 8.03433V9.81663C24.4596 10.5198 23.9023 11.0906 23.2138 11.0906H22.093C21.4055 11.0906 20.8482 10.5198 20.8482 9.81663V8.03538C20.8482 6.55829 19.5523 4.97913 18.1086 4.97913H16.3638C15.6763 4.97913 15.119 4.40933 15.119 3.70621V2.81454C15.119 2.11142 15.6763 1.54163 16.3638 1.54163H18.1076ZM7.89505 24.4583C4.38672 24.4583 1.54297 21.552 1.54297 17.9656V16.1833C1.54297 15.4802 2.10026 14.9093 2.7888 14.9093H3.90964C4.59714 14.9093 5.15443 15.4791 5.15443 16.1833V17.9645C5.15443 19.4416 6.45026 21.0208 7.89401 21.0208H9.6388C10.3263 21.0208 10.8836 21.5906 10.8836 22.2937V23.1854C10.8836 23.8885 10.3263 24.4583 9.6388 24.4583H7.89505Z" fill="#A7AABB"/>
</svg>
