<svg width="30" height="30" viewBox="0 0 30 30" fill="none" xmlns="http://www.w3.org/2000/svg">
<path d="M27.2423 15.3372C26.9387 14.2032 26.3315 13.2054 25.4987 12.42C26.1791 10.821 26.0765 8.98562 25.2065 7.47782C24.3719 6.03302 23.0249 4.99922 21.4133 4.56722C20.2787 4.26362 19.1099 4.29002 18.0119 4.62002C16.9661 3.22922 15.3377 2.40002 13.5887 2.40002C10.6451 2.40002 8.17606 4.44962 7.51906 7.19462C7.51306 7.19522 7.50766 7.19282 7.50166 7.19342C5.76046 7.40942 4.25926 8.40482 3.38266 9.92282C2.54806 11.3676 2.32666 13.0512 2.75866 14.6628C3.06286 15.7974 3.67006 16.7964 4.50406 17.5818C3.82366 19.1814 3.92206 21.0102 4.79446 22.5222C5.62906 23.967 6.97606 25.0008 8.58766 25.4328C9.12526 25.5768 9.67186 25.6482 10.2143 25.6482C10.8161 25.6482 11.4113 25.5516 11.9885 25.3782C13.0337 26.7714 14.6555 27.6 16.4123 27.6C19.3589 27.6 21.8291 25.5468 22.4843 22.7982C24.2123 22.5882 25.7429 21.5946 26.6189 20.0772C27.4529 18.6324 27.6743 16.9488 27.2423 15.3372ZM21.1025 5.72582C22.4051 6.07442 23.4929 6.91022 24.1667 8.07722C24.7961 9.16742 24.9125 10.4772 24.5081 11.6574C24.4487 11.6202 24.3923 11.5788 24.3317 11.5434L18.8303 8.36702C18.6431 8.25962 18.4115 8.26082 18.2243 8.37062L12.1055 11.9952L12.0743 9.23102L17.2721 6.23042C18.4403 5.55602 19.8005 5.37782 21.1025 5.72582ZM17.8427 13.317L17.8799 16.6194L15.0383 18.3024L12.1589 16.683L12.1217 13.3806L14.9633 11.6976L17.8427 13.317ZM8.54146 8.64722C8.54146 5.86382 10.8059 3.60002 13.5887 3.60002C14.8541 3.60002 16.0439 4.14962 16.8635 5.09282C16.8005 5.12642 16.7351 5.15462 16.6727 5.19062L11.1707 8.36702C10.9835 8.47562 10.8683 8.67722 10.8707 8.89322L10.9505 16.0038L8.54146 14.649V8.64722ZM3.91726 14.3526C3.56866 13.0506 3.74806 11.6898 4.42186 10.5228C5.05786 9.42122 6.11566 8.67842 7.35226 8.43842C7.34986 8.50802 7.34146 8.57642 7.34146 8.64722V15C7.34146 15.2166 7.45846 15.4164 7.64746 15.5232L13.8449 19.0092L11.4665 20.418L6.26926 17.4168C5.10166 16.743 4.26646 15.6552 3.91726 14.3526ZM8.89846 24.2742C7.59586 23.9256 6.50806 23.0898 5.83426 21.9228C5.20246 20.8284 5.08486 19.5222 5.49046 18.3408C5.55106 18.3786 5.60806 18.4206 5.66986 18.4566L11.1713 21.633C11.2637 21.6864 11.3675 21.7134 11.4713 21.7134C11.5775 21.7134 11.6831 21.6852 11.7773 21.6294L17.8961 18.0048L17.9273 20.769L12.7295 23.7696C11.5619 24.4446 10.2011 24.624 8.89846 24.2742ZM21.4595 21.3528C21.4595 24.1362 19.1957 26.4 16.4123 26.4C15.1409 26.4 13.9559 25.8486 13.1369 24.9036C13.1999 24.87 13.2665 24.8448 13.3289 24.8088L18.8309 21.6324C19.0181 21.5238 19.1333 21.3222 19.1309 21.1062L19.0505 13.9962L21.4595 15.351V21.3528ZM25.5791 19.4772C24.9455 20.5752 23.8751 21.3288 22.6487 21.567C22.6511 21.495 22.6595 21.4248 22.6595 21.3528V15C22.6595 14.7834 22.5425 14.5836 22.3535 14.4768L16.1561 10.9908L18.5345 9.58202L23.7317 12.5832C24.8993 13.257 25.7345 14.3454 26.0837 15.6474C26.4323 16.9494 26.2529 18.3102 25.5791 19.4772Z" fill="#70A597"/>
</svg>
