<svg width="50" height="50" viewBox="0 0 50 50" fill="none" xmlns="http://www.w3.org/2000/svg">
<circle cx="25" cy="25" r="25" fill="url(#paint0_linear_117_699)"/>
<path d="M21.5555 11.466L10.536 30.5608C9.82134 31.8042 9.82134 33.2906 10.536 34.5269C11.2506 35.7704 12.5369 36.5136 13.9733 36.5136H17.6465C19.0615 36.5136 20.3764 35.7561 21.0838 34.5269L21.3411 34.0839C21.4054 34.2339 21.4769 34.384 21.5627 34.5269C22.2773 35.7704 23.5636 36.5136 25 36.5136H28.6732C30.0881 36.5136 31.403 35.7561 32.1105 34.5269L32.3678 34.0839C32.4321 34.2339 32.5036 34.384 32.5893 34.5269C33.304 35.7704 34.5903 36.5136 36.0267 36.5136C37.4631 36.5136 38.7494 35.7704 39.464 34.5269C40.1787 33.2835 40.1787 31.7971 39.464 30.5608C38.7494 29.3173 37.4631 28.5741 36.0267 28.5741C35.8623 28.5741 35.698 28.5813 35.5336 28.6027L35.7909 28.1596C36.4983 26.9376 36.4983 25.4155 35.7909 24.1935L33.9543 21.0134C33.2396 19.7699 31.9533 19.0267 30.5169 19.0267C30.3525 19.0267 30.1882 19.0339 30.0238 19.0553L30.2811 18.6122C30.9886 17.3902 30.9886 15.8681 30.2811 14.646L28.4445 11.4731C27.7299 10.2297 26.4435 9.48645 25.0071 9.48645C23.5708 9.48645 22.2844 10.2297 21.5698 11.4731L21.5555 11.466ZM36.0124 30.1463C36.8771 30.1463 37.656 30.5965 38.0848 31.3469C38.5136 32.0972 38.5207 32.9905 38.0848 33.7409C37.6489 34.4912 36.8771 34.9414 36.0124 34.9414C35.1477 34.9414 34.3687 34.4912 33.94 33.7409C33.5041 32.9905 33.5041 32.0972 33.94 31.3469C34.3759 30.5965 35.1477 30.1463 36.0124 30.1463ZM30.5026 20.5917C31.3673 20.5917 32.1463 21.042 32.575 21.7923L34.4116 24.9724C34.8404 25.7085 34.8404 26.6303 34.4116 27.3664L30.7384 33.7337C30.3097 34.4698 29.5164 34.9343 28.666 34.9343H24.9929C24.1282 34.9343 23.3492 34.4841 22.9204 33.7337C22.4845 32.9834 22.4845 32.0901 22.9204 31.3397L28.4302 21.7852C28.8661 21.0348 29.6379 20.5846 30.5026 20.5846V20.5917ZM24.9929 11.0515C25.8576 11.0515 26.6365 11.5017 27.0653 12.2521L28.9019 15.425C29.3306 16.1611 29.3306 17.0829 28.9019 17.819L27.0653 21.0062L21.5555 30.5536L19.7189 33.7337C19.2901 34.4698 18.4969 34.9343 17.6465 34.9343H13.9733C13.1086 34.9343 12.3297 34.4841 11.9009 33.7337C11.465 32.9834 11.465 32.0901 11.9009 31.3397L22.9204 12.2449C23.3564 11.4945 24.1282 11.0443 24.9929 11.0443V11.0515Z" fill="white"/>
<path d="M17.6391 29.1315C17.7606 29.203 17.8964 29.2387 18.0322 29.2387C18.3037 29.2387 18.5682 29.0958 18.7111 28.8456L23.4348 20.6703C23.6491 20.2916 23.5205 19.8128 23.1489 19.5984C22.7702 19.384 22.2914 19.5126 22.077 19.8842L17.3533 28.0596C17.1389 28.4383 17.2675 28.9171 17.6391 29.1315Z" fill="white"/>
<path d="M27.5654 31.1039C27.6869 31.1753 27.8227 31.2111 27.9585 31.2111C28.23 31.2111 28.4944 31.0681 28.6373 30.818L30.917 26.8733C31.1314 26.4945 31.0028 26.0157 30.6312 25.8013C30.2524 25.587 29.7736 25.7156 29.5592 26.0872L27.2796 30.0319C27.0652 30.4107 27.1938 30.8895 27.5654 31.1039Z" fill="white"/>
<defs>
<linearGradient id="paint0_linear_117_699" x1="0.127036" y1="24.9664" x2="50" y2="24.9725" gradientUnits="userSpaceOnUse">
<stop stop-color="#A93E17"/>
<stop offset="1" stop-color="#15399A"/>
</linearGradient>
</defs>
</svg>
