<svg width="48" height="44" viewBox="0 0 48 44" fill="none" xmlns="http://www.w3.org/2000/svg">
<path d="M18.4888 3.34556L0.857551 33.8973C-0.28585 35.8868 -0.28585 38.265 0.857551 40.2431C2.00095 42.2327 4.05908 43.4218 6.35731 43.4218H12.2344C14.4983 43.4218 16.6022 42.2098 17.7342 40.2431L18.1458 39.5342C18.2487 39.7743 18.363 40.0145 18.5002 40.2431C19.6436 42.2327 21.7018 43.4218 24 43.4218H29.8771C32.141 43.4218 34.2449 42.2098 35.3768 40.2431L35.7885 39.5342C35.8914 39.7743 36.0057 40.0145 36.1429 40.2431C37.2863 42.2327 39.3444 43.4218 41.6427 43.4218C43.9409 43.4218 45.999 42.2327 47.1424 40.2431C48.2859 38.2536 48.2859 35.8753 47.1424 33.8973C45.999 31.9077 43.9409 30.7186 41.6427 30.7186C41.3797 30.7186 41.1167 30.73 40.8537 30.7643L41.2654 30.0554C42.3973 28.1002 42.3973 25.6648 41.2654 23.7095L38.3268 18.6214C37.1834 16.6319 35.1253 15.4428 32.8271 15.4428C32.5641 15.4428 32.3011 15.4542 32.0381 15.4885L32.4497 14.7796C33.5817 12.8244 33.5817 10.3889 32.4497 8.4337L29.5112 3.357C28.3678 1.36748 26.3097 0.178345 24.0114 0.178345C21.7132 0.178345 19.6551 1.36748 18.5117 3.357L18.4888 3.34556ZM41.6198 33.2341C43.0033 33.2341 44.2496 33.9544 44.9357 35.155C45.6217 36.3556 45.6332 37.7848 44.9357 38.9854C44.2382 40.186 43.0033 40.9063 41.6198 40.9063C40.2363 40.9063 38.99 40.186 38.304 38.9854C37.6065 37.7848 37.6065 36.3556 38.304 35.155C39.0014 33.9544 40.2363 33.2341 41.6198 33.2341ZM32.8042 17.9468C34.1877 17.9468 35.434 18.6671 36.1201 19.8677L39.0586 24.9559C39.7446 26.1336 39.7446 27.6085 39.0586 28.7862L33.1815 38.974C32.4955 40.1517 31.2263 40.8949 29.8656 40.8949H23.9886C22.6051 40.8949 21.3587 40.1745 20.6727 38.974C19.9752 37.7734 19.9752 36.3441 20.6727 35.1436L29.4883 19.8563C30.1858 18.6557 31.4207 17.9354 32.8042 17.9354V17.9468ZM23.9886 2.68239C25.3721 2.68239 26.6184 3.40273 27.3044 4.60331L30.243 9.68001C30.929 10.8577 30.929 12.3327 30.243 13.5104L27.3044 18.61L18.4888 33.8858L15.5503 38.974C14.8642 40.1517 13.595 40.8949 12.2344 40.8949H6.35731C4.9738 40.8949 3.72749 40.1745 3.04145 38.974C2.34397 37.7734 2.34397 36.3441 3.04145 35.1436L20.6727 4.59188C21.3702 3.3913 22.6051 2.67096 23.9886 2.67096V2.68239Z" fill="white"/>
<path d="M12.223 31.6104C12.4174 31.7248 12.6346 31.7819 12.8519 31.7819C13.2864 31.7819 13.7094 31.5533 13.9381 31.1531L21.496 18.0726C21.839 17.4665 21.6332 16.7005 21.0386 16.3575C20.4326 16.0144 19.6666 16.2202 19.3235 16.8148L11.7657 29.8953C11.4226 30.5013 11.6284 31.2674 12.223 31.6104Z" fill="white"/>
<path d="M28.1048 34.7663C28.2992 34.8806 28.5165 34.9378 28.7337 34.9378C29.1682 34.9378 29.5913 34.7091 29.82 34.3089L33.4674 27.9974C33.8104 27.3914 33.6046 26.6253 33.01 26.2823C32.404 25.9392 31.638 26.145 31.2949 26.7396L27.6475 33.0512C27.3045 33.6572 27.5103 34.4233 28.1048 34.7663Z" fill="white"/>
</svg>
