<svg width="30" height="30" viewBox="0 0 30 30" fill="none" xmlns="http://www.w3.org/2000/svg">
<path fill-rule="evenodd" clip-rule="evenodd" d="M23.0888 10.4861C24.1019 9.06677 26.0168 7.53881 28.6238 6.26679C29.3013 5.93622 28.9957 4.91165 28.2478 5.00625C22.7703 5.69911 19.22 8.09805 17.2812 11.6656C16.5602 12.9924 16.1071 14.4047 15.8659 15.8464C15.7068 16.797 15.6648 17.5104 15.6648 18.3343C15.6648 22.0162 18.6496 25.001 22.3315 25.001C26.0134 25.001 28.9981 22.0162 28.9981 18.3343C28.9981 14.6524 25.9657 11.6656 22.481 11.6656C22.6649 11.1608 22.709 11.0182 23.0888 10.4861ZM8.42212 10.4861C9.43522 9.06677 11.3502 7.53881 13.9571 6.26679C14.6346 5.93622 14.329 4.91165 13.5811 5.00625C8.10361 5.69911 4.55332 8.09805 2.61457 11.6656C1.89349 12.9924 1.44046 14.4047 1.19921 15.8464C1.04013 16.797 0.998125 17.5104 0.998125 18.3343C0.998125 22.0162 3.98289 25.001 7.66479 25.001C11.3467 25.001 14.3315 22.0162 14.3315 18.3343C14.3315 14.6524 11.2991 11.6656 7.81437 11.6656C7.99821 11.1608 8.04236 11.0182 8.42212 10.4861Z" fill="white"/>
</svg>
